<svg width="75" height="75" viewBox="0 0 75 75" fill="none" xmlns="http://www.w3.org/2000/svg">
<path d="M39.8712 7.0816L37.7335 10.9726C32.6375 20.2362 27.5441 29.4956 22.4487 38.7589L17.9581 34.2682L16.4108 36.8408C11.8336 44.4696 7.25544 52.102 2.67792 59.7336L0.549316 63.2812H4.6875H73.8693L72.4686 60.0128C70.1249 54.5451 67.7812 49.0748 65.4373 43.6066L64.0732 40.4251L59.2255 45.2728C53.4453 33.8623 47.6581 22.4516 41.8762 11.0413L39.8712 7.0816ZM39.7018 17.1158C42.0759 21.8009 44.4512 26.4844 46.8246 31.1691L45.0119 32.7255L39.6698 28.1479L34.3277 32.7255L32.1487 30.8533C34.6665 26.2742 37.1833 21.6945 39.7018 17.1158ZM39.6698 34.3185L45.0119 38.8962L49.0036 35.4767C51.5028 40.4098 54.0028 45.3428 56.5018 50.2762L57.962 53.1647L62.4893 48.6374C63.9116 51.956 65.3333 55.275 66.7557 58.5938H8.82568C12.1795 53.0032 15.5335 47.4154 18.8873 41.8259L23.5474 46.4859L25.0534 43.7531C26.6493 40.852 28.2463 37.9521 29.8416 35.051L34.3277 38.8962L39.6698 34.3185Z" fill="white"/>
</svg>
