<svg width="21" height="20" viewBox="0 0 21 20" fill="none" xmlns="http://www.w3.org/2000/svg">
<path d="M9.63494 1.3628C9.67723 1.2555 9.74926 1.1637 9.84186 1.0991C9.93445 1.0345 10.0434 1 10.1549 1C10.2664 1 10.3754 1.0345 10.468 1.0991C10.5606 1.1637 10.6326 1.2555 10.6749 1.3628L12.7999 6.67856C12.8397 6.77803 12.9051 6.86415 12.9889 6.92746C13.0727 6.99077 13.1717 7.02881 13.2749 7.03738L18.7929 7.49709C19.2919 7.53869 19.4939 8.18665 19.1139 8.52467L14.9099 12.271C14.8314 12.3409 14.7729 12.4319 14.7408 12.5341C14.7087 12.6363 14.7042 12.7457 14.7279 12.8503L16.0129 18.451C16.0388 18.5634 16.032 18.6812 15.9935 18.7896C15.955 18.8979 15.8865 18.992 15.7966 19.0599C15.7067 19.1278 15.5995 19.1664 15.4885 19.171C15.3775 19.1756 15.2677 19.1458 15.1729 19.0855L10.4479 16.0849C10.3597 16.0289 10.2583 15.9993 10.1549 15.9993C10.0516 15.9993 9.9502 16.0289 9.86194 16.0849L5.13694 19.0865C5.04219 19.1468 4.93239 19.1766 4.82139 19.172C4.7104 19.1675 4.60319 19.1288 4.5133 19.0609C4.42342 18.9931 4.3549 18.899 4.31639 18.7906C4.27788 18.6823 4.27111 18.5644 4.29694 18.4521L5.58194 12.8503C5.60577 12.7457 5.60139 12.6362 5.56928 12.534C5.53717 12.4318 5.47857 12.3408 5.39994 12.271L1.19594 8.52467C1.11175 8.44939 1.05085 8.34989 1.02089 8.23869C0.990924 8.1275 0.993244 8.00958 1.02755 7.89975C1.06186 7.78992 1.12662 7.6931 1.2137 7.62145C1.30078 7.54981 1.40628 7.50654 1.51694 7.49709L7.03494 7.03738C7.13819 7.02881 7.23716 6.99077 7.32096 6.92746C7.40477 6.86415 7.47016 6.77803 7.50994 6.67856L9.63494 1.3628Z" stroke="#111827" stroke-width="1.5" stroke-linecap="round" stroke-linejoin="round"/>
</svg>
