<svg width="34" height="86" viewBox="0 0 34 86" fill="none" xmlns="http://www.w3.org/2000/svg">
<path d="M16.9856 1.2459C12.7791 1.2459 8.74486 3.09661 5.77042 6.39091C2.79597 9.6852 1.12494 14.1532 1.12494 18.8121C1.12494 30.6623 13.3875 48.6755 16.3501 52.8507C16.4256 52.9574 16.5221 53.0438 16.6322 53.1032C16.7423 53.1625 16.8631 53.1934 16.9856 53.1934C17.108 53.1934 17.2289 53.1625 17.339 53.1032C17.4491 53.0438 17.5455 52.9574 17.621 52.8507C20.6094 48.6755 32.8462 30.6623 32.8462 18.8121C32.8462 14.1532 31.1752 9.6852 28.2008 6.39091C25.2263 3.09661 21.1921 1.2459 16.9856 1.2459ZM16.9856 28.998C15.1642 28.9999 13.3832 28.4033 11.868 27.2837C10.3529 26.1641 9.17166 24.5719 8.47385 22.7086C7.77604 20.8452 7.59301 18.7945 7.94794 16.8159C8.30286 14.8373 9.17978 13.0197 10.4677 11.5933C11.7556 10.1669 13.3967 9.19567 15.1832 8.80258C16.9697 8.40949 18.8213 8.6122 20.5038 9.38504C22.1862 10.1579 23.6238 11.4661 24.6347 13.1442C25.6456 14.8223 26.1842 16.7948 26.1825 18.8121C26.1825 21.5135 25.2136 24.1044 23.4888 26.0146C21.764 27.9248 19.4248 28.998 16.9856 28.998Z" fill="#E28086"/>
<path d="M20.91 1.78801C22.7634 3.43358 24.259 5.51969 25.2862 7.89196C26.3133 10.2642 26.8456 12.8619 26.8437 15.4929C26.8437 26.0497 17.1058 41.514 12.8895 47.6959C14.3836 50.0355 15.6374 51.8426 16.3244 52.8507C16.3999 52.9575 16.4963 53.0438 16.6064 53.1032C16.7165 53.1625 16.8374 53.1934 16.9598 53.1934C17.0823 53.1934 17.2031 53.1625 17.3132 53.1032C17.4233 53.0438 17.5198 52.9575 17.5953 52.8507C20.6094 48.6755 32.8462 30.6623 32.8462 18.8121C32.8441 14.9099 31.6701 11.1193 29.5091 8.03723C27.3482 4.95517 24.323 2.7567 20.91 1.78801Z" fill="#DD636E"/>
<path d="M14.1775 60.4212C14.1775 60.971 13.9803 61.4984 13.6292 61.8872C13.2782 62.276 12.802 62.4945 12.3055 62.4945H10.4335C9.94078 62.4895 9.46991 62.2685 9.12391 61.8799C8.77791 61.4914 8.58495 60.9669 8.58724 60.4212V57.3397H14.1947V60.4212H14.1775Z" fill="#FFC250"/>
<path d="M19.7507 60.4212C19.7518 60.693 19.7044 60.9624 19.6113 61.2139C19.5182 61.4654 19.3811 61.694 19.2079 61.8866C19.0348 62.0793 18.829 62.2322 18.6023 62.3365C18.3757 62.4408 18.1327 62.4945 17.8872 62.4945H16.0496C15.5531 62.4945 15.0769 62.276 14.7259 61.8872C14.3748 61.4984 14.1776 60.971 14.1776 60.4212V57.3397H19.7507V60.4212Z" fill="#9DC6FB"/>
<path d="M25.4011 60.4212C25.4011 60.971 25.2039 61.4984 24.8528 61.8872C24.5017 62.276 24.0256 62.4945 23.5291 62.4945H21.657C21.4083 62.4995 21.1612 62.4496 20.9301 62.3477C20.699 62.2458 20.4885 62.0939 20.3111 61.9008C20.1336 61.7078 19.9926 61.4775 19.8964 61.2235C19.8002 60.9694 19.7506 60.6967 19.7507 60.4212V57.3397H25.3667V60.4212H25.4011Z" fill="#FFC250"/>
<path d="M10.6224 52.7461L8.58722 57.3397H14.1947L14.8817 52.7461H10.6224Z" fill="#FFD064"/>
<path d="M23.3487 52.7461H19.1066L19.7507 57.3397H25.3667L23.3487 52.7461Z" fill="#FFD064"/>
<path d="M29.1451 62.4945H27.2731C27.027 62.4957 26.783 62.443 26.5554 62.3392C26.3278 62.2355 26.1209 62.0828 25.9469 61.89C25.7728 61.6973 25.635 61.4682 25.5413 61.2161C25.4476 60.964 25.4 60.6938 25.4011 60.4212C25.4011 60.971 25.2039 61.4984 24.8528 61.8872C24.5017 62.276 24.0256 62.4945 23.5291 62.4945H21.6571C21.4083 62.4995 21.1612 62.4496 20.9301 62.3477C20.699 62.2458 20.4886 62.0939 20.3111 61.9008C20.1336 61.7078 19.9926 61.4775 19.8964 61.2235C19.8002 60.9694 19.7507 60.6967 19.7507 60.4212C19.7518 60.693 19.7045 60.9624 19.6113 61.2139C19.5182 61.4654 19.3811 61.694 19.208 61.8866C19.0348 62.0793 18.829 62.2322 18.6024 62.3365C18.3757 62.4408 18.1327 62.4945 17.8873 62.4945H16.0496C15.5531 62.4945 15.0769 62.276 14.7259 61.8872C14.3748 61.4984 14.1776 60.971 14.1776 60.4212C14.1776 60.971 13.9803 61.4984 13.6293 61.8872C13.2782 62.276 12.802 62.4945 12.3055 62.4945H10.4335C9.94081 62.4895 9.46994 62.2685 9.12394 61.8799C8.77794 61.4914 8.58498 60.9669 8.58727 60.4212C8.58728 60.695 8.5383 60.9662 8.44315 61.219C8.348 61.4718 8.20857 61.7012 8.03291 61.894C7.85725 62.0868 7.64885 62.2391 7.41974 62.3422C7.19063 62.4452 6.94536 62.497 6.69808 62.4945H4.82606C4.55609 62.4957 4.28923 62.4308 4.04462 62.3043V79.1286H29.9266V62.3043C29.6817 62.4299 29.415 62.4948 29.1451 62.4945Z" fill="#F1EAF9"/>
<path d="M10.6224 52.7461H6.38034L3.13436 57.0639C3.08326 57.1408 3.04006 57.2237 3.00555 57.3112H8.58727L10.6224 52.7461Z" fill="#BED8FB"/>
<path d="M2.95404 57.6631V60.4212C2.95404 60.971 3.15127 61.4984 3.50234 61.8872C3.85341 62.276 4.32957 62.4945 4.82606 62.4945H6.69808C6.94536 62.497 7.19064 62.4452 7.41975 62.3422C7.64886 62.2391 7.85726 62.0868 8.03292 61.894C8.20857 61.7012 8.348 61.4718 8.44315 61.219C8.5383 60.9662 8.58729 60.695 8.58728 60.4212V57.3397H3.00556C2.97159 57.4434 2.95416 57.5528 2.95404 57.6631Z" fill="#9DC6FB"/>
<path d="M30.8282 57.0639L27.5823 52.7175H23.3488L25.4011 57.3112H30.9571C30.9294 57.2201 30.8856 57.136 30.8282 57.0639Z" fill="#BED8FB"/>
<path d="M25.4011 57.3397V60.4212C25.4011 60.971 25.5984 61.4984 25.9494 61.8872C26.3005 62.276 26.7767 62.4945 27.2731 62.4945H29.1452C29.3906 62.4945 29.6336 62.4408 29.8603 62.3365C30.0869 62.2322 30.2927 62.0793 30.4659 61.8866C30.639 61.694 30.7761 61.4654 30.8692 61.2139C30.9624 60.9624 31.0097 60.693 31.0086 60.4212V57.6631C31.0085 57.5528 30.991 57.4434 30.9571 57.3397H25.4011Z" fill="#9DC6FB"/>
<path d="M30.4848 83.7888H3.48645C3.34525 83.7888 3.20983 83.7267 3.10998 83.6161C3.01013 83.5055 2.95404 83.3556 2.95404 83.1992V79.7183C2.95404 79.5619 3.01013 79.4119 3.10998 79.3013C3.20983 79.1907 3.34525 79.1286 3.48645 79.1286H30.4848C30.5543 79.1286 30.6231 79.1439 30.6872 79.1737C30.7513 79.2034 30.8095 79.247 30.8582 79.3019C30.907 79.3568 30.9454 79.4218 30.9712 79.4933C30.997 79.5648 31.0097 79.6413 31.0086 79.7183V83.1992C31.0097 83.2761 30.997 83.3526 30.9712 83.4241C30.9454 83.4956 30.907 83.5607 30.8582 83.6156C30.8095 83.6704 30.7513 83.714 30.6872 83.7438C30.6231 83.7735 30.5543 83.7888 30.4848 83.7888Z" fill="#FFD064"/>
<path d="M14.4523 74.5445H8.58725C8.48626 74.542 8.39016 74.4958 8.31954 74.4158C8.24892 74.3358 8.20939 74.2284 8.20941 74.1165V67.1737C8.20941 67.0627 8.24922 66.9563 8.32008 66.8778C8.39094 66.7993 8.48704 66.7553 8.58725 66.7553H14.4781C14.5783 66.7553 14.6744 66.7993 14.7453 66.8778C14.8161 66.9563 14.8559 67.0627 14.8559 67.1737V74.1165C14.856 74.1743 14.8455 74.2316 14.825 74.2848C14.8045 74.338 14.7745 74.3861 14.7368 74.4261C14.699 74.4661 14.6544 74.4972 14.6055 74.5175C14.5566 74.5379 14.5045 74.547 14.4523 74.5445Z" fill="#D0CEE7"/>
<path d="M19.1409 79.1286H25.7617V67.1737C25.7617 67.0627 25.7219 66.9563 25.651 66.8778C25.5802 66.7993 25.4841 66.7553 25.3839 66.7553H19.5188C19.4186 66.7553 19.3225 66.7993 19.2516 66.8778C19.1807 66.9563 19.1409 67.0627 19.1409 67.1737V79.1286Z" fill="#D0CEE7"/>
<path d="M27.7111 47.7815H21.0216C19.6047 49.9975 18.4454 51.7379 17.6898 52.7461H27.7111C27.7589 52.7461 27.8048 52.725 27.8386 52.6876C27.8724 52.6501 27.8914 52.5993 27.8914 52.5463V47.9812C27.8914 47.9283 27.8724 47.8775 27.8386 47.84C27.8048 47.8025 27.7589 47.7815 27.7111 47.7815Z" fill="#DDDAEC"/>
<path d="M12.941 47.7815H6.26011C6.21228 47.7815 6.16641 47.8025 6.13259 47.84C6.09877 47.8775 6.07977 47.9283 6.07977 47.9812V52.5463C6.07977 52.5993 6.09877 52.6501 6.13259 52.6876C6.16641 52.725 6.21228 52.7461 6.26011 52.7461H16.3158C15.603 51.7379 14.4008 49.9975 12.9839 47.7815H12.941Z" fill="#DDDAEC"/>
<path d="M17.6897 52.7461L17.621 52.8507C17.5455 52.9574 17.4491 53.0438 17.339 53.1032C17.2289 53.1625 17.108 53.1934 16.9856 53.1934C16.8631 53.1934 16.7423 53.1625 16.6322 53.1032C16.5221 53.0438 16.4256 52.9574 16.3501 52.8507L16.3158 52.7461H14.8645L14.1776 57.3397H19.7936L19.1066 52.7461H17.6897Z" fill="#BED8FB"/>
<path d="M25.6158 40.0779C25.8732 40.244 26.1796 40.2902 26.4678 40.2064C26.756 40.1226 27.0023 39.9156 27.1529 39.6309C31.6784 31.1379 33.9712 24.1285 33.9712 18.8121C33.9712 13.8228 32.1816 9.03787 28.9962 5.50993C25.8108 1.98198 21.4904 0 16.9856 0C12.4807 0 8.16037 1.98198 4.97496 5.50993C1.78955 9.03787 6.71276e-08 13.8228 0 18.8121C0 27.3717 6.01107 38.7844 10.777 46.5356H6.2601C5.91462 46.5381 5.58393 46.6912 5.33963 46.9618C5.09533 47.2323 4.95709 47.5986 4.95484 47.9812V52.5463C4.95085 52.597 4.95085 52.6479 4.95484 52.6985L2.26703 56.303C1.98566 56.688 1.83119 57.1678 1.82908 57.6631V60.4212C1.83004 60.9101 1.92826 61.3929 2.11675 61.835C2.30524 62.2772 2.57938 62.668 2.91966 62.9795V77.9873C2.60054 78.1159 2.32479 78.35 2.12973 78.6579C1.93468 78.9658 1.82973 79.3326 1.82908 79.7087V83.1897C1.82908 83.6765 2.0037 84.1433 2.31451 84.4876C2.62532 84.8318 3.04687 85.0252 3.48642 85.0252H30.4847C30.702 85.0252 30.9171 84.9777 31.1177 84.8853C31.3183 84.7929 31.5004 84.6576 31.6536 84.487C31.8068 84.3164 31.9281 84.114 32.0105 83.8914C32.0928 83.6687 32.1346 83.4303 32.1335 83.1897V79.7183C32.1365 79.3413 32.0341 78.9726 31.8404 78.6627C31.6467 78.3528 31.3711 78.1169 31.0515 77.9873V62.9795C31.3907 62.6675 31.6635 62.2764 31.8505 61.8342C32.0375 61.392 32.1342 60.9095 32.1335 60.4212V57.6631C32.1342 57.1672 31.9794 56.6865 31.6955 56.303L29.0077 52.6985C29.0117 52.6479 29.0117 52.597 29.0077 52.5463V47.9812C29.0055 47.5986 28.8672 47.2323 28.6229 46.9618C28.3786 46.6912 28.0479 46.5381 27.7025 46.5356H23.1856C23.5462 45.9555 23.9155 45.3468 24.2847 44.7286C24.3731 44.5927 24.4359 44.4384 24.4692 44.275C24.5025 44.1116 24.5057 43.9424 24.4787 43.7776C24.4516 43.6128 24.3948 43.4557 24.3117 43.3158C24.2286 43.1758 24.1208 43.0559 23.9949 42.9631C23.869 42.8703 23.7274 42.8066 23.5788 42.7758C23.4301 42.745 23.2773 42.7477 23.1296 42.7838C22.9819 42.8199 22.8423 42.8886 22.7191 42.9858C22.596 43.083 22.4917 43.2067 22.4127 43.3495C20.6953 46.2503 18.7803 49.1891 16.9942 51.7284C14.0058 47.4772 2.24986 30.0251 2.24986 18.8121C2.24986 16.6689 2.63101 14.5466 3.37155 12.5666C4.11209 10.5865 5.19751 8.78736 6.56585 7.27189C7.93419 5.75641 9.55864 4.55427 11.3465 3.7341C13.1343 2.91393 15.0505 2.49179 16.9856 2.49179C18.9207 2.49179 20.8369 2.91393 22.6247 3.7341C24.4125 4.55427 26.037 5.75641 27.4053 7.27189C28.7736 8.78736 29.8591 10.5865 30.5996 12.5666C31.3401 14.5466 31.7213 16.6689 31.7213 18.8121C31.7213 23.5674 29.4714 30.377 25.2208 38.366C25.0696 38.6514 25.0263 38.9913 25.1003 39.3119C25.1743 39.6325 25.3595 39.9078 25.6158 40.0779ZM12.3571 49.0274C12.9496 49.9785 13.4992 50.7678 13.9972 51.5002H7.2047V49.0274H12.3571ZM27.0584 53.992L28.6213 56.1128H26.0966L25.1606 53.992H27.0584ZM29.8836 60.4212C29.8836 60.639 29.8061 60.848 29.6679 61.0029C29.5296 61.1578 29.3418 61.2461 29.1451 61.2486H27.2731C27.075 61.2486 26.8849 61.1614 26.7448 61.0062C26.6047 60.8511 26.526 60.6406 26.526 60.4212V58.5856H29.8836V60.4212ZM4.82603 61.2486C4.62789 61.2486 4.43787 61.1614 4.29776 61.0062C4.15765 60.8511 4.07894 60.6406 4.07894 60.4212V58.5856H7.44514V60.4212C7.44514 60.6406 7.36643 60.8511 7.22633 61.0062C7.08622 61.1614 6.89619 61.2486 6.69805 61.2486H4.82603ZM6.91274 53.992H8.81052L7.86592 56.1128H5.34127L6.91274 53.992ZM11.318 53.992H13.5335L13.2244 56.1128H10.382L11.318 53.992ZM18.4626 56.1128H15.5L15.8177 54.0205C16.1537 54.3028 16.5638 54.4556 16.9856 54.4556C17.4073 54.4556 17.8175 54.3028 18.1534 54.0205L18.4626 56.1128ZM9.695 58.5856H13.0526V60.4212C13.0526 60.6406 12.9739 60.8511 12.8338 61.0062C12.6937 61.1614 12.5037 61.2486 12.3055 61.2486H10.4335C10.2369 61.2461 10.049 61.1578 9.91078 61.0029C9.77252 60.848 9.69499 60.639 9.695 60.4212V58.5856ZM15.3025 58.5856H18.6687V60.4212C18.6687 60.5298 18.6494 60.6374 18.6118 60.7378C18.5743 60.8382 18.5192 60.9294 18.4499 61.0062C18.3805 61.0831 18.2981 61.144 18.2075 61.1856C18.1168 61.2272 18.0197 61.2486 17.9216 61.2486H16.0496C15.8514 61.2486 15.6614 61.1614 15.5213 61.0062C15.3812 60.8511 15.3025 60.6406 15.3025 60.4212V58.5856ZM20.91 58.5856H24.2762V60.4212C24.2762 60.6406 24.1974 60.8511 24.0573 61.0062C23.9172 61.1614 23.7272 61.2486 23.5291 61.2486H21.657C21.4589 61.2486 21.2689 61.1614 21.1288 61.0062C20.9887 60.8511 20.91 60.6406 20.91 60.4212V58.5856ZM22.6274 53.992L23.5892 56.1128H20.7468L20.4291 54.011L22.6274 53.992ZM29.8665 82.5239H4.10471V80.3745H9.01661C9.31496 80.3745 9.60109 80.2432 9.81206 80.0096C10.023 79.7759 10.1415 79.459 10.1415 79.1286C10.1415 78.7982 10.023 78.4813 9.81206 78.2476C9.60109 78.014 9.31496 77.8827 9.01661 77.8827H5.15235V63.7214H6.69805C7.38131 63.7286 8.04683 63.4806 8.58725 63.0176C9.11685 63.4847 9.77365 63.7395 10.4507 63.7404H12.3227C13.0023 63.7394 13.6618 63.4847 14.1947 63.0176C14.7283 63.4834 15.3873 63.7379 16.0667 63.7404H17.9388C18.6198 63.7389 19.28 63.4806 19.8108 63.0081C20.3375 63.482 20.9956 63.7406 21.6742 63.7404H23.5291C24.2085 63.7379 24.8675 63.4834 25.4011 63.0176C25.9346 63.4834 26.5937 63.7379 27.2731 63.7404H28.8016V77.8827H26.9039V75.429C26.9039 75.0985 26.7853 74.7816 26.5744 74.548C26.3634 74.3143 26.0773 74.1831 25.7789 74.1831C25.4806 74.1831 25.1944 74.3143 24.9835 74.548C24.7725 74.7816 24.654 75.0985 24.654 75.429V77.8827H20.2659V68.0011H24.654V69.618C24.654 69.9484 24.7725 70.2653 24.9835 70.4989C25.1944 70.7326 25.4806 70.8639 25.7789 70.8639C26.0773 70.8639 26.3634 70.7326 26.5744 70.4989C26.7853 70.2653 26.9039 69.9484 26.9039 69.618V67.1737C26.9039 66.7323 26.7455 66.309 26.4637 65.9968C26.1819 65.6847 25.7996 65.5094 25.4011 65.5094H19.5188C19.1232 65.5144 18.7454 65.6919 18.4673 66.0035C18.1892 66.3151 18.0332 66.7356 18.0332 67.1737V77.8827H14.2548C13.9565 77.8827 13.6704 78.014 13.4594 78.2476C13.2484 78.4813 13.1299 78.7982 13.1299 79.1286C13.1299 79.459 13.2484 79.7759 13.4594 80.0096C13.6704 80.2432 13.9565 80.3745 14.2548 80.3745H29.8922V82.5429L29.8665 82.5239ZM26.7665 49.0274V51.5002H19.9739C20.4548 50.7774 21.013 49.9499 21.6055 49.0274H26.7665Z" fill="black"/>
<path d="M15.9551 74.1165V67.1737C15.9551 66.7323 15.7968 66.309 15.5149 65.9968C15.2331 65.6847 14.8509 65.5094 14.4523 65.5094H8.58724C8.18868 65.5094 7.80645 65.6847 7.52462 65.9968C7.2428 66.309 7.08447 66.7323 7.08447 67.1737V74.1165C7.08447 74.5588 7.24252 74.9831 7.5241 75.2967C7.80568 75.6104 8.18789 75.7879 8.58724 75.7904H14.4781C14.8729 75.7804 15.2486 75.5997 15.5246 75.2869C15.8007 74.974 15.9552 74.5539 15.9551 74.1165ZM13.7396 73.2986H9.30857V68.0011H13.7396V73.2986Z" fill="black"/>
<path d="M16.9856 7.37076C14.9475 7.37076 12.9552 8.04011 11.2606 9.29416C9.56597 10.5482 8.24519 12.3306 7.46525 14.4161C6.68531 16.5015 6.48124 18.7962 6.87885 21.0101C7.27646 23.2239 8.25789 25.2575 9.69903 26.8536C11.1402 28.4497 12.9763 29.5367 14.9752 29.977C16.9741 30.4174 19.0461 30.1914 20.929 29.3276C22.8119 28.4638 24.4213 27.001 25.5536 25.1241C26.6859 23.2473 27.2902 21.0408 27.2902 18.7835C27.2902 15.7567 26.2046 12.8538 24.2721 10.7135C22.3396 8.57317 19.7185 7.37076 16.9856 7.37076ZM16.9856 27.7521C15.3866 27.754 13.8231 27.2304 12.493 26.2478C11.1628 25.2651 10.1258 23.8675 9.51311 22.2318C8.90044 20.5961 8.7397 18.7959 9.05122 17.0589C9.36273 15.322 10.1325 13.7265 11.2631 12.4743C12.3937 11.2221 13.8343 10.3696 15.4026 10.0245C16.9709 9.67953 18.5964 9.85756 20.0732 10.5361C21.5501 11.2147 22.8121 12.3632 23.6993 13.8364C24.5866 15.3096 25.0593 17.0412 25.0576 18.8121C25.053 21.1816 24.2011 23.4526 22.6883 25.1281C21.1755 26.8036 19.125 27.7471 16.9856 27.7521Z" fill="black"/>
</svg>
