<svg width="77" height="86" viewBox="0 0 77 86" fill="none" xmlns="http://www.w3.org/2000/svg">
<path fill-rule="evenodd" clip-rule="evenodd" d="M15.5438 67.8474C21.4338 72.3994 22.4338 71.5244 22.6038 76.7077H34.8338L34.7738 71.17C34.7738 67.5041 35.0238 62.6752 32.8238 59.7403L27.5438 52.6964C24.4738 49.7836 20.4338 53.5159 23.4338 57.2815C24.5738 58.7103 25.0038 59.3194 26.0338 60.6041C26.3531 60.981 26.5294 61.4792 26.5266 61.9959C26.5237 62.5126 26.3417 63.0083 26.0183 63.3807C25.6949 63.7531 25.2547 63.9738 24.7886 63.9971C24.3226 64.0203 23.8662 63.8445 23.5138 63.5059L17.7038 57.7467C16.6097 56.7595 15.6645 55.5856 14.9038 54.2691L10.9538 45.9404C9.35382 42.3077 5.30382 44.6446 6.58382 47.9561L12.7038 63.7495C13.3294 65.3549 14.3053 66.7631 15.5438 67.8474Z" fill="#FFE5C1"/>
<path fill-rule="evenodd" clip-rule="evenodd" d="M44.7138 59.8067C42.5038 62.7417 42.8038 67.5594 42.7138 71.2364L42.6538 76.7741H54.9038C55.0738 71.5798 56.0838 72.4547 61.9638 67.9138C63.2082 66.8359 64.1853 65.426 64.8038 63.816L70.9038 47.934C72.1938 44.6114 68.1438 42.2856 66.5338 45.9183L62.6138 54.2691C61.8584 55.5898 60.9203 56.7708 59.8338 57.7689L54.0238 63.5169C53.6764 63.8885 53.2099 64.092 52.727 64.0827C52.2441 64.0733 51.7843 63.8519 51.4488 63.4671C51.1133 63.0823 50.9296 62.5657 50.938 62.0308C50.9464 61.496 51.1464 60.9868 51.4938 60.6152C52.4938 59.3859 52.9538 58.7767 54.0938 57.2926C57.0938 53.527 53.0938 49.7946 49.9838 52.7074L44.7138 59.8067Z" fill="#FFE5C1"/>
<path fill-rule="evenodd" clip-rule="evenodd" d="M21.0638 82.345C21.0638 82.5326 21.0972 82.7184 21.162 82.8917C21.2269 83.0651 21.3219 83.2226 21.4417 83.3552C21.5615 83.4879 21.7037 83.5931 21.8602 83.6649C22.0167 83.7367 22.1844 83.7737 22.3538 83.7737H35.1538C35.3232 83.7737 35.491 83.7367 35.6475 83.6649C35.804 83.5931 35.9462 83.4879 36.066 83.3552C36.1858 83.2226 36.2808 83.0651 36.3456 82.8917C36.4105 82.7184 36.4438 82.5326 36.4438 82.345V78.1474C36.4438 77.7685 36.3079 77.4051 36.066 77.1372C35.8241 76.8693 35.496 76.7187 35.1538 76.7187H22.3538C22.0117 76.7187 21.6836 76.8693 21.4417 77.1372C21.1998 77.4051 21.0638 77.7685 21.0638 78.1474V82.345Z" fill="#FDB440"/>
<path fill-rule="evenodd" clip-rule="evenodd" d="M41.0838 78.1474V82.345C41.0864 82.7249 41.2246 83.0883 41.4681 83.3559C41.7116 83.6235 42.0407 83.7737 42.3838 83.7737H55.1838C55.5259 83.7737 55.854 83.6232 56.096 83.3552C56.3379 83.0873 56.4738 82.7239 56.4738 82.345V78.1474C56.4738 77.7685 56.3379 77.4051 56.096 77.1372C55.854 76.8693 55.5259 76.7187 55.1838 76.7187H42.3838C42.0407 76.7187 41.7116 76.8689 41.4681 77.1365C41.2246 77.4041 41.0864 77.7675 41.0838 78.1474Z" fill="#FDB440"/>
<path fill-rule="evenodd" clip-rule="evenodd" d="M23.8438 53.1615L29.1138 60.1943C31.3238 63.1404 31.0238 67.9471 31.0638 71.6352L31.1238 76.7298H34.8338L34.7738 71.1921C34.7738 67.5262 35.0238 62.6974 32.8238 59.7624L27.5438 52.7185C26.9657 52.0714 26.1845 51.6964 25.3629 51.6716C24.5413 51.6469 23.7428 51.9743 23.1338 52.5856C23.3877 52.7371 23.6258 52.9191 23.8438 53.1283V53.1615Z" fill="#FED1A3"/>
<path fill-rule="evenodd" clip-rule="evenodd" d="M52.5638 75.7219V76.7187H54.9038C55.0738 71.5576 56.0738 72.3883 61.9038 67.9138L62.0038 67.8474C63.2482 66.7694 64.2253 65.3595 64.8438 63.7495L70.9038 47.934C71.1143 47.4959 71.2079 47.0005 71.1735 46.5057C71.1391 46.0109 70.9783 45.5371 70.7098 45.1398C70.4413 44.7425 70.0762 44.4381 69.6572 44.2622C69.2382 44.0862 68.7827 44.046 68.3438 44.1462C68.6011 44.5483 68.7554 45.02 68.7907 45.5112C68.8259 46.0025 68.7406 46.4952 68.5438 46.9372L62.2038 62.4426C60.3438 67.1275 52.9038 66.4519 52.5638 75.7219Z" fill="#FED1A3"/>
<path fill-rule="evenodd" clip-rule="evenodd" d="M32.3138 78.1474V82.345C32.3112 82.7249 32.173 83.0883 31.9295 83.3559C31.686 83.6235 31.3568 83.7737 31.0138 83.7737H35.1538C35.4959 83.7737 35.824 83.6232 36.066 83.3552C36.3079 83.0873 36.4438 82.7239 36.4438 82.345V78.1474C36.4438 77.7685 36.3079 77.4051 36.066 77.1372C35.824 76.8693 35.4959 76.7187 35.1538 76.7187H31.0138C31.3568 76.7187 31.686 76.8689 31.9295 77.1365C32.173 77.4041 32.3112 77.7675 32.3138 78.1474Z" fill="#FE9900"/>
<path fill-rule="evenodd" clip-rule="evenodd" d="M52.3338 78.1474V82.345C52.3338 82.7239 52.1979 83.0873 51.956 83.3552C51.7141 83.6232 51.386 83.7737 51.0438 83.7737H55.1838C55.526 83.7737 55.8541 83.6232 56.096 83.3552C56.3379 83.0873 56.4738 82.7239 56.4738 82.345V78.1474C56.4738 77.7685 56.3379 77.4051 56.096 77.1372C55.8541 76.8693 55.526 76.7187 55.1838 76.7187H51.0438C51.386 76.7187 51.7141 76.8693 51.956 77.1372C52.1979 77.4051 52.3338 77.7685 52.3338 78.1474Z" fill="#FE9900"/>
<path fill-rule="evenodd" clip-rule="evenodd" d="M13.1538 38.5864H32.4138C36.9238 38.5864 37.2638 28.2421 30.7238 27.9762L18.3038 28.087C15.3038 29.0173 12.4238 30.3021 12.4238 35.0755V37.7668C12.4238 37.9823 12.5004 38.1891 12.637 38.3425C12.7736 38.4959 12.9593 38.5835 13.1538 38.5864Z" fill="#22A6FE"/>
<path fill-rule="evenodd" clip-rule="evenodd" d="M18.3038 28.087L24.0138 31.7972C24.3591 32.1344 24.8035 32.3204 25.2638 32.3204C25.7241 32.3204 26.1686 32.1344 26.5138 31.7972L30.7238 29.0616C31.3138 27.6108 31.2138 25.2407 29.1338 24.7976C29.7038 24.9195 26.9938 22.8927 25.4938 22.9038C23.7138 22.9038 22.0838 25.2296 21.6638 24.9638C21.4138 25.5286 21.0938 27.2453 19.8838 27.6218L18.3038 28.087Z" fill="#F5A96C"/>
<path fill-rule="evenodd" clip-rule="evenodd" d="M49.5938 38.5864H63.3938C63.5901 38.5864 63.7783 38.5001 63.9171 38.3464C64.0559 38.1927 64.1338 37.9842 64.1338 37.7668V35.0755C64.1338 30.3464 61.2338 29.0173 58.2638 28.087L45.8338 29.0616C42.7138 29.8148 36.8338 38.5864 43.6538 38.5864H49.5938Z" fill="#22A6FE"/>
<path fill-rule="evenodd" clip-rule="evenodd" d="M50.0438 31.7972C50.3874 32.1336 50.8302 32.3192 51.2888 32.3192C51.7474 32.3192 52.1902 32.1336 52.5338 31.7972L58.2638 28.087L56.6638 27.6108C55.4638 27.2453 55.1438 25.5286 54.8938 24.9638C53.744 24.3021 52.4719 23.9429 51.1763 23.9141C49.8808 23.8853 48.5967 24.1876 47.4238 24.7976C46.6411 26.0865 46.1003 27.5366 45.8338 29.0616L50.0438 31.7972Z" fill="#F5A96C"/>
<path fill-rule="evenodd" clip-rule="evenodd" d="M16.0638 15.8377C16.0638 19.0606 18.4838 23.0145 21.6638 24.9638C22.0784 25.2279 22.5134 25.4503 22.9638 25.6283C23.6918 25.9682 24.4738 26.1434 25.2638 26.1434C26.0539 26.1434 26.8359 25.9682 27.5638 25.6283C28.1092 25.4057 28.6348 25.1276 29.1338 24.7976C31.2538 22.9924 34.6738 13.9217 32.2438 12.0056C30.8138 11.0753 30.6038 9.48047 28.7238 10.0232C27.6003 10.4395 26.4407 10.7253 25.2638 10.876C24.0869 10.7253 22.9274 10.4395 21.8038 10.0232C19.2338 9.29219 19.8038 12.4376 16.0638 12.7255V15.8377Z" fill="#FFBC85"/>
<path fill-rule="evenodd" clip-rule="evenodd" d="M21.8038 10.0232C22.9274 10.4395 24.0869 10.7253 25.2638 10.876C26.4407 10.7253 27.6003 10.4395 28.7238 10.0232C30.6038 9.48047 30.8138 11.0199 32.2438 12.0056C32.8595 11.3705 33.5571 10.8404 34.3138 10.4329C34.0828 7.9492 33.0408 5.64439 31.3835 3.95165C29.7262 2.25891 27.5678 1.29477 25.3138 1.24043C20.7138 1.32904 16.1138 5.1611 16.1138 12.7255C19.7938 12.4376 19.2338 9.29219 21.8038 10.0232Z" fill="#6D80AA"/>
<path fill-rule="evenodd" clip-rule="evenodd" d="M47.4238 24.7976C47.9194 25.1276 48.4417 25.4057 48.9838 25.6283C49.7143 25.9649 50.4977 26.1382 51.2888 26.1382C52.08 26.1382 52.8634 25.9649 53.5938 25.6283C54.0434 25.4479 54.4783 25.2256 54.8938 24.9638C58.0738 23.0145 60.4938 19.0606 60.4938 15.8377V12.7255C56.7638 12.4376 57.3238 9.28111 54.7538 10.0232C53.63 10.4384 52.4706 10.7242 51.2938 10.876C50.1136 10.7257 48.9507 10.4399 47.8238 10.0232C45.9538 9.48047 45.7438 11.0199 44.3138 12.0056C45.3786 13.1492 46.2111 14.5308 46.756 16.0586C47.3009 17.5864 47.5456 19.2252 47.4738 20.8659V23.9781C47.4713 24.2521 47.4546 24.5257 47.4238 24.7976Z" fill="#FFBC85"/>
<path fill-rule="evenodd" clip-rule="evenodd" d="M51.2938 10.876C52.4706 10.7242 53.63 10.4384 54.7538 10.0232C57.3238 9.28111 56.7538 12.4376 60.4938 12.7255C60.4938 5.1611 55.8938 1.32904 51.2938 1.24043C49.0399 1.29477 46.8815 2.25891 45.2242 3.95165C43.5669 5.64439 42.5248 7.9492 42.2938 10.4329C43.0491 10.8432 43.7464 11.373 44.3638 12.0056C45.7938 11.0199 46.0038 9.48047 47.8738 10.0232C49.0007 10.4399 50.1636 10.7257 51.3438 10.876H51.2938Z" fill="#6D80AA"/>
<path fill-rule="evenodd" clip-rule="evenodd" d="M37.0238 41.5878C37.371 41.9206 37.8147 42.1038 38.2738 42.1038C38.733 42.1038 39.1767 41.9206 39.5238 41.5878L45.2438 36.2163L43.6538 35.7401C42.4438 35.3746 42.1238 33.6579 41.8838 33.0931C39.6438 30.6676 37.5138 30.1581 34.6738 33.0931C34.4238 33.6579 34.1038 35.3746 32.8938 35.7401L31.3138 36.2163L37.0238 41.5878Z" fill="#FED1A3"/>
<path fill-rule="evenodd" clip-rule="evenodd" d="M22.5038 2.5584C24.7039 2.59034 26.8209 3.49355 28.4718 5.10455C30.1227 6.71555 31.1982 8.92789 31.5038 11.3411C31.7362 11.5905 31.9909 11.8131 32.2638 12.0056C32.8795 11.3705 33.5771 10.8404 34.3338 10.4329C34.1028 7.9492 33.0608 5.64439 31.4035 3.95165C29.7462 2.25891 27.5878 1.29477 25.3338 1.24043C23.6132 1.27208 21.9343 1.83184 20.4838 2.85743C21.146 2.68035 21.8229 2.58013 22.5038 2.5584Z" fill="#49679B"/>
<path fill-rule="evenodd" clip-rule="evenodd" d="M47.4238 24.7976C47.3181 25.6172 47.1059 26.4155 46.7938 27.1678C48.9338 28.386 49.9638 29.3828 52.5138 28.2753C52.708 28.1981 52.8983 28.1094 53.0838 28.0095C53.8438 27.6108 53.9038 28.2199 53.9038 28.2199C54.0051 28.6049 54.1798 28.9614 54.4162 29.2652C54.6525 29.569 54.945 29.813 55.2738 29.9809L58.2738 28.0427L56.6838 27.5665C55.4738 27.201 55.1538 25.4843 54.9038 24.9195C54.4882 25.1813 54.0534 25.4036 53.6038 25.584C52.8734 25.9206 52.09 26.0939 51.2988 26.0939C50.5076 26.0939 49.7243 25.9206 48.9938 25.584C48.4517 25.3614 47.9294 25.0833 47.4338 24.7533L47.4238 24.7976Z" fill="#EA9A58"/>
<path fill-rule="evenodd" clip-rule="evenodd" d="M58.1738 11.9392V15.5054C58.1738 18.7284 55.7538 22.6823 52.5838 24.6315C52.1662 24.8889 51.7316 25.111 51.2838 25.296C50.7062 25.547 50.1008 25.7109 49.4838 25.7833C50.8292 26.2737 52.2896 26.2068 53.5938 25.5951C54.0434 25.4147 54.4782 25.1924 54.8938 24.9305C58.0738 22.9813 60.4938 19.0274 60.4938 15.8045V12.7255C59.672 12.6908 58.8725 12.4198 58.1738 11.9392Z" fill="#F5A96C"/>
<path fill-rule="evenodd" clip-rule="evenodd" d="M49.1738 1.55055C53.4838 1.71668 57.7438 5.18326 58.1738 11.917C58.8725 12.3976 59.672 12.6686 60.4938 12.7034C60.4938 5.13895 55.8938 1.30689 51.2938 1.21829C50.578 1.23935 49.8668 1.35083 49.1738 1.55055Z" fill="#49679B"/>
<path fill-rule="evenodd" clip-rule="evenodd" d="M34.6738 33.093C35.0906 33.3524 35.5253 33.5746 35.9738 33.7576C36.7043 34.0942 37.4877 34.2675 38.2788 34.2675C39.07 34.2675 39.8534 34.0942 40.5838 33.7576C41.0316 33.5726 41.4662 33.3504 41.8838 33.093C43.4793 32.1077 44.8481 30.7282 45.8838 29.0616C46.7031 27.7948 47.2472 26.3356 47.4738 24.7976C47.4887 24.5173 47.4887 24.2362 47.4738 23.9559V19.0385C43.7538 18.7505 44.3138 15.6051 41.7338 16.3361C40.6108 16.752 39.4509 17.0341 38.2738 17.1778C37.0969 17.0331 35.9372 16.7509 34.8138 16.3361C32.2438 15.6051 31.7338 18.5512 29.0838 20.8437V23.9559C29.0806 24.2375 29.0973 24.5189 29.1338 24.7976C29.3555 26.3371 29.9001 27.7976 30.7238 29.0616C31.7453 30.7218 33.0965 32.1009 34.6738 33.093Z" fill="#FFE5C1"/>
<path fill-rule="evenodd" clip-rule="evenodd" d="M38.2738 18.9942C39.4518 18.8504 40.612 18.5644 41.7338 18.1414C44.3138 17.4215 43.7338 20.5558 47.4738 20.8437C47.5456 19.203 47.3009 17.5642 46.756 16.0364C46.2111 14.5087 45.3786 13.127 44.3138 11.9835C43.6964 11.3508 42.9991 10.821 42.2438 10.4108C41.0173 9.71223 39.658 9.34782 38.2788 9.34782C36.8996 9.34782 35.5403 9.71223 34.3138 10.4108C33.5571 10.8182 32.8595 11.3483 32.2438 11.9835C31.1791 13.127 30.3465 14.5087 29.8016 16.0364C29.2568 17.5642 29.0121 19.203 29.0838 20.8437C32.8038 20.5558 32.2438 17.4215 34.8138 18.1414C35.9359 18.5634 37.096 18.8494 38.2738 18.9942Z" fill="#6D80AA"/>
<path fill-rule="evenodd" clip-rule="evenodd" d="M41.4538 11.7066C42.9427 13.2486 43.9541 15.2719 44.3438 17.4879C44.5219 18.1723 44.6161 18.8801 44.6238 19.5922C45.4067 20.376 46.4187 20.8205 47.4738 20.8437C47.4751 20.2369 47.4451 19.6304 47.3838 19.0274C47.1633 16.3519 46.0722 13.8564 44.3138 12.0056C43.6964 11.373 42.999 10.8432 42.2438 10.4329C41.0032 9.73372 39.6356 9.35506 38.2438 9.32542H37.5938C38.2017 9.50106 38.7915 9.74602 39.3538 10.0564C40.1216 10.4921 40.8288 11.0479 41.4538 11.7066Z" fill="#49679B"/>
<path fill-rule="evenodd" clip-rule="evenodd" d="M44.6238 20.5558V23.668C44.6237 23.9462 44.6036 24.2239 44.5638 24.4986C44.3402 26.0477 43.796 27.5185 42.9738 28.7958C41.9337 30.4552 40.5657 31.8301 38.9738 32.8162C38.5582 33.078 38.1233 33.3003 37.6738 33.4807C37.2187 33.6788 36.7461 33.8236 36.2638 33.9126C37.652 34.4617 39.1756 34.4142 40.5338 33.7797C40.9816 33.5947 41.4162 33.3726 41.8338 33.1152C43.4292 32.1299 44.798 30.7503 45.8338 29.0838C46.6531 27.8169 47.1972 26.3577 47.4238 24.8198C47.4387 24.5395 47.4387 24.2584 47.4238 23.9781V20.8437C46.3687 20.8205 45.3566 20.376 44.5738 19.5922L44.6238 20.5558Z" fill="#FED1A3"/>
<path fill-rule="evenodd" clip-rule="evenodd" d="M26.1938 28.5854C27.0138 28.2531 27.9638 27.3671 28.3538 28.5854L28.8038 30.3353L30.7238 29.0838C30.5062 28.7266 30.306 28.3569 30.1238 27.9763C29.617 26.9898 29.278 25.9086 29.1238 24.7866C28.6247 25.1165 28.0992 25.3946 27.5538 25.6172C26.8258 25.9571 26.0438 26.1323 25.2538 26.1323C24.4638 26.1323 23.6817 25.9571 22.9538 25.6172C22.5034 25.4392 22.0683 25.2168 21.6538 24.9527C21.4504 25.6238 21.1716 26.2638 20.8238 26.8576C22.0338 27.799 24.7238 29.1724 26.1838 28.5743L26.1938 28.5854Z" fill="#EA9A58"/>
<path fill-rule="evenodd" clip-rule="evenodd" d="M55.2738 30.0252C58.2738 30.9555 61.1438 32.2402 61.1438 37.0137V38.5864H63.3938C63.5901 38.5864 63.7783 38.5001 63.9171 38.3464C64.0558 38.1927 64.1338 37.9842 64.1338 37.7668V35.0755C64.1338 30.3464 61.2338 29.0173 58.2638 28.087L55.2738 30.0252Z" fill="#0182FC"/>
<path fill-rule="evenodd" clip-rule="evenodd" d="M26.1738 46.7046H50.3838C50.5801 46.7046 50.7683 46.6183 50.9071 46.4646C51.0459 46.3109 51.1238 46.1024 51.1238 45.885V43.1937C51.1689 42.3505 51.0563 41.506 50.793 40.7132C50.5297 39.9204 50.1215 39.1964 49.5938 38.5864C48.3464 37.4046 46.8504 36.5895 45.2438 36.2163L39.5238 39.9265C39.1786 40.2637 38.7341 40.4497 38.2738 40.4497C37.8135 40.4497 37.3691 40.2637 37.0238 39.9265L31.3138 36.2163C29.7065 36.5872 28.2101 37.4025 26.9638 38.5864C26.4342 39.1948 26.0246 39.9186 25.7612 40.7118C25.4978 41.505 25.3863 42.3502 25.4338 43.1937V45.885C25.4338 46.1024 25.5118 46.3109 25.6506 46.4646C25.7893 46.6183 25.9776 46.7046 26.1738 46.7046Z" fill="#FD4755"/>
<path fill-rule="evenodd" clip-rule="evenodd" d="M40.3038 36.1277C40.4936 36.6055 40.7797 37.0286 41.1403 37.3647C41.5009 37.7007 41.9264 37.9406 42.3838 38.0659L45.2438 36.2163L43.6538 35.7401C42.4438 35.3746 42.1238 33.6579 41.8838 33.093L41.3638 33.3921C41.1038 33.525 40.8438 33.6468 40.5838 33.7576C39.2257 34.3921 37.702 34.4395 36.3138 33.8905L35.9738 33.7576L35.7238 33.6468C35.3798 33.487 35.0457 33.302 34.7238 33.093C34.5348 33.7112 34.2867 34.3053 33.9838 34.8651C33.8938 35.0202 38.1238 36.7811 39.7738 35.9726C40.2538 35.74 40.1838 35.5739 40.3538 36.0945L40.3038 36.1277Z" fill="#FFBC85"/>
<path fill-rule="evenodd" clip-rule="evenodd" d="M43.9038 38.5864C44.9739 38.9636 45.9567 39.5948 46.7838 40.436C47.3075 41.0508 47.7124 41.7775 47.9738 42.5716C48.2351 43.3657 48.3474 44.2106 48.3038 45.0544V46.7046H50.4238C50.521 46.7046 50.6172 46.6834 50.707 46.6422C50.7968 46.601 50.8784 46.5407 50.9471 46.4646C51.0158 46.3885 51.0703 46.2981 51.1075 46.1987C51.1447 46.0992 51.1638 45.9927 51.1638 45.885V43.1937C51.2089 42.3505 51.0963 41.506 50.833 40.7132C50.5697 39.9204 50.1615 39.1964 49.6338 38.5864C48.3864 37.4046 46.8904 36.5895 45.2838 36.2163L42.4238 38.0659L43.0738 38.2874C43.3138 38.376 43.5938 38.4757 43.9038 38.5864Z" fill="#E41E2B"/>
<path d="M35.1538 75.4672H23.6638C23.3938 72.0671 22.4338 71.2475 19.5438 69.254C18.6638 68.6448 17.5438 67.8806 16.2138 66.8395C15.1314 65.8922 14.2819 64.6581 13.7438 63.2511L7.63384 47.4467C7.53928 47.2755 7.47833 47.0842 7.45497 46.8852C7.4316 46.6862 7.44634 46.484 7.49823 46.2918C7.55011 46.0995 7.63798 45.9216 7.75611 45.7694C7.87424 45.6173 8.01998 45.4944 8.18384 45.4088C8.70384 45.143 9.44384 45.2759 9.95384 46.4388L13.9038 54.8339C14.4815 55.9562 15.2291 56.9602 16.1138 57.8021C16.3638 58.0679 16.6238 58.3337 16.8838 58.6217C16.9003 58.6255 16.9174 58.6255 16.9338 58.6217L22.7438 64.3697L22.8238 64.4362C23.4052 65.0024 24.1616 65.2978 24.935 65.2607C25.7085 65.2235 26.439 64.8567 26.9738 64.2368C27.4679 63.6201 27.7298 62.8171 27.7056 61.9931C27.6814 61.169 27.373 60.3866 26.8438 59.8067C26.2338 59.0757 25.8438 58.5663 25.3738 57.9682L24.2738 56.4841C23.3938 55.3766 23.2738 54.2691 23.9238 53.4827C24.3129 53.0859 24.8281 52.876 25.3565 52.8988C25.885 52.9216 26.3839 53.1754 26.7438 53.6045L31.9538 60.5598C33.6438 62.7749 33.6438 66.5516 33.6438 69.852V70.9596C33.6438 71.1225 33.6728 71.2838 33.7291 71.4342C33.7854 71.5847 33.8679 71.7215 33.9719 71.8367C34.0759 71.9519 34.1993 72.0432 34.3352 72.1056C34.4711 72.1679 34.6168 72.2 34.7638 72.2C35.0645 72.2 35.3529 72.0685 35.5664 71.8341C35.7799 71.5997 35.9012 71.2814 35.9038 70.9485V69.841C35.9038 66.2969 35.9038 61.8889 33.6938 58.9539L28.4238 51.9211L28.2838 51.766C27.4869 50.9088 26.4198 50.4293 25.3088 50.4293C24.1979 50.4293 23.1307 50.9088 22.3338 51.766C21.0638 53.1837 20.6538 55.7199 22.6038 58.1676L23.6838 59.5409C24.1638 60.1611 24.5738 60.6484 25.2138 61.4569C25.2869 61.5228 25.3468 61.6047 25.3898 61.6975C25.4328 61.7903 25.4579 61.892 25.4636 61.9961C25.4692 62.1002 25.4552 62.2045 25.4226 62.3023C25.3899 62.4002 25.3393 62.4894 25.2738 62.5645C25.0138 62.8967 24.6438 62.8857 24.2138 62.5645L18.4638 56.8939C18.1938 56.5838 17.9238 56.3069 17.6738 56.03C16.9604 55.3681 16.3608 54.5689 15.9038 53.671L11.9038 45.3645C11.7353 44.8777 11.4796 44.4336 11.1521 44.0591C10.8246 43.6845 10.4321 43.3873 9.99813 43.1851C9.56418 42.983 9.0978 42.8802 8.62704 42.8829C8.15628 42.8856 7.69088 42.9937 7.25885 43.2008C6.82681 43.4079 6.43707 43.7097 6.11308 44.0879C5.78909 44.4662 5.53755 44.9132 5.37359 45.4019C5.20964 45.8907 5.13665 46.4111 5.15904 46.9319C5.18142 47.4527 5.29871 47.9631 5.50384 48.4324L11.6738 64.2368C12.3772 66.0501 13.4894 67.6328 14.9038 68.8331C16.3138 69.9406 17.4438 70.7048 18.3538 71.3361C20.8038 73.0306 21.2838 73.3629 21.4338 75.6444C20.9803 75.8414 20.5912 76.1861 20.3181 76.633C20.045 77.0798 19.9005 77.6078 19.9038 78.1474V82.345C19.9065 83.0549 20.1623 83.735 20.6155 84.237C21.0688 84.739 21.6828 85.0223 22.3238 85.0252H35.1238C35.7649 85.0223 36.3789 84.739 36.8321 84.237C37.2854 83.735 37.5412 83.0549 37.5438 82.345V78.1474C37.5412 77.4375 37.2854 76.7575 36.8321 76.2555C36.3789 75.7534 35.7649 75.4701 35.1238 75.4672H35.1538ZM35.3238 82.345C35.3214 82.3941 35.3028 82.4404 35.2714 82.4752C35.24 82.5099 35.1981 82.5306 35.1538 82.5333H22.3538C22.3095 82.5306 22.2677 82.5099 22.2363 82.4752C22.2049 82.4404 22.1862 82.3941 22.1838 82.345V78.1474C22.1862 78.0984 22.2049 78.052 22.2363 78.0173C22.2677 77.9825 22.3095 77.9618 22.3538 77.9592H35.1538C35.1981 77.9618 35.24 77.9825 35.2714 78.0173C35.3028 78.052 35.3214 78.0984 35.3238 78.1474V82.345Z" fill="black"/>
<path d="M70.2838 43.1937C69.8444 42.9794 69.37 42.8669 68.8898 42.8632C68.4097 42.8594 67.9339 42.9645 67.4918 43.172C67.0496 43.3795 66.6505 43.685 66.319 44.0696C65.9874 44.4543 65.7304 44.91 65.5638 45.4088L61.6238 53.7153C61.1711 54.5748 60.5894 55.3426 59.9038 55.9857L59.1038 56.8496L53.3638 62.5202C52.9338 62.8635 52.5538 62.8746 52.3038 62.5202C52.2333 62.4506 52.177 62.3652 52.1384 62.2698C52.0997 62.1744 52.0798 62.071 52.0798 61.9664C52.0798 61.8618 52.0997 61.7584 52.1384 61.663C52.177 61.5676 52.2333 61.4822 52.3038 61.4126C52.9638 60.6152 53.3938 60.0725 53.8838 59.4302L54.8838 58.1233C56.8238 55.6756 56.4238 53.1394 55.1538 51.7217C54.3534 50.8505 53.276 50.3624 52.1538 50.3624C51.0316 50.3624 49.9542 50.8505 49.1538 51.7217C49.1054 51.7679 49.0618 51.8199 49.0238 51.8768L43.7438 58.9096C41.5438 61.8556 41.5438 66.2525 41.5438 69.7856V70.5719C41.5438 70.9019 41.6615 71.2186 41.8712 71.453C42.081 71.6874 42.3658 71.8205 42.6638 71.8234C42.8147 71.8401 42.967 71.8231 43.1118 71.7732C43.2565 71.7234 43.3908 71.6417 43.5065 71.5332C43.6222 71.4247 43.717 71.2915 43.7852 71.1416C43.8535 70.9917 43.8938 70.8281 43.9038 70.6605V69.8742C43.9038 66.5516 43.9038 62.8303 45.5838 60.582L50.7938 53.6267C50.9722 53.4125 51.187 53.2395 51.4259 53.1174C51.6648 52.9954 51.9231 52.9267 52.186 52.9154C52.4489 52.9041 52.7112 52.9503 52.9579 53.0515C53.2046 53.1526 53.4309 53.3067 53.6238 53.5049C54.2838 54.2469 54.1438 55.3987 53.2638 56.5063C52.8338 57.0379 52.5138 57.4587 52.2138 57.8464C51.7138 58.4777 51.3238 58.9539 50.6938 59.7403C50.1668 60.3215 49.8599 61.1035 49.8358 61.9268C49.8116 62.75 50.072 63.5525 50.5638 64.1704C51.0862 64.8013 51.8083 65.1846 52.5796 65.2403C53.3509 65.296 54.1118 65.0198 54.7038 64.4694L54.7838 64.403L60.5838 58.6992C60.8438 58.4112 61.1038 58.1454 61.3538 57.8796C62.2386 57.0377 62.9861 56.0337 63.5638 54.9114L67.5638 46.5163C68.0638 45.3534 68.8138 45.2205 69.3338 45.4863C69.4889 45.5719 69.6269 45.6909 69.7398 45.8364C69.8527 45.982 69.9383 46.151 69.9914 46.3336C70.0445 46.5162 70.0641 46.7088 70.049 46.8999C70.034 47.0911 69.9846 47.277 69.9038 47.4467L63.7838 63.2511C63.2449 64.6545 62.3996 65.8876 61.3238 66.8395C59.9638 67.8806 58.8738 68.6448 57.9838 69.254C55.1038 71.2586 54.1338 72.0671 53.8638 75.4672H42.3838C41.742 75.4672 41.1264 75.7496 40.6726 76.2522C40.2188 76.7549 39.9638 77.4366 39.9638 78.1474V82.345C39.9638 83.0558 40.2188 83.7375 40.6726 84.2402C41.1264 84.7428 41.742 85.0252 42.3838 85.0252H55.1838C55.8239 85.0223 56.4369 84.7386 56.8885 84.2363C57.3402 83.734 57.5938 83.0539 57.5938 82.345V78.1474C57.5943 77.6186 57.4529 77.1015 57.1877 76.6618C56.9224 76.2221 56.5451 75.8795 56.1038 75.6776C56.2538 73.3961 56.7338 73.0639 59.1838 71.3693C60.0838 70.7381 61.1838 69.9517 62.6238 68.8663C64.0636 67.667 65.1944 66.0709 65.9038 64.2368L72.0238 48.4324C72.2234 47.9624 72.3366 47.4533 72.3571 46.9345C72.3775 46.4156 72.3046 45.8975 72.1428 45.4101C71.9809 44.9228 71.7332 44.4758 71.4141 44.0954C71.0949 43.7149 70.7108 43.4084 70.2838 43.1937ZM55.3438 82.345C55.3439 82.3931 55.3273 82.4393 55.2976 82.4743C55.2679 82.5094 55.2271 82.5304 55.1838 82.5333H42.3838C42.3395 82.5306 42.2976 82.5099 42.2663 82.4752C42.2349 82.4404 42.2162 82.3941 42.2138 82.345V78.1474C42.2162 78.0984 42.2349 78.052 42.2663 78.0173C42.2976 77.9825 42.3395 77.9618 42.3838 77.9592H55.1838C55.2271 77.962 55.2679 77.9831 55.2976 78.0181C55.3273 78.0531 55.3439 78.0994 55.3438 78.1474V82.345Z" fill="black"/>
<path d="M75.5438 16.026H70.1738C70.0172 16.0096 69.8591 16.0296 69.7099 16.0848C69.5606 16.14 69.4234 16.2291 69.3071 16.3464C69.1907 16.4637 69.0977 16.6066 69.0341 16.766C68.9705 16.9253 68.9376 17.0977 68.9376 17.272C68.9376 17.4462 68.9705 17.6186 69.0341 17.778C69.0977 17.9373 69.1907 18.0803 69.3071 18.1976C69.4234 18.3148 69.5606 18.4039 69.7099 18.4591C69.8591 18.5143 70.0172 18.5343 70.1738 18.5179H75.5438C75.7005 18.5343 75.8585 18.5143 76.0077 18.4591C76.157 18.4039 76.2942 18.3148 76.4106 18.1976C76.5269 18.0803 76.6199 17.9373 76.6835 17.778C76.7471 17.6186 76.78 17.4462 76.78 17.272C76.78 17.0977 76.7471 16.9253 76.6835 16.766C76.6199 16.6066 76.5269 16.4637 76.4106 16.3464C76.2942 16.2291 76.157 16.14 76.0077 16.0848C75.8585 16.0296 75.7005 16.0096 75.5438 16.026Z" fill="black"/>
<path d="M67.9038 8.91563C68.153 8.9181 68.3958 8.82846 68.5938 8.6609L73.0538 4.82884C73.2899 4.62763 73.4441 4.33081 73.4825 4.00368C73.521 3.67655 73.4405 3.3459 73.2588 3.08447C73.0771 2.82305 72.8091 2.65226 72.5138 2.60968C72.2184 2.5671 71.9199 2.65622 71.6838 2.85743L67.2538 6.64519C67.0186 6.84854 66.8656 7.14666 66.8282 7.47448C66.7907 7.80231 66.8718 8.13325 67.0538 8.39509C67.1521 8.54583 67.2793 8.67065 67.4263 8.76063C67.5732 8.85062 67.7363 8.90354 67.9038 8.91563Z" fill="black"/>
<path d="M73.0939 29.704L68.6339 25.883C68.3974 25.6814 68.0986 25.5916 67.8026 25.6331C67.5066 25.6746 67.2375 25.8441 67.0539 26.1045C66.8724 26.3646 66.7916 26.6937 66.8291 27.0198C66.8665 27.3458 67.0193 27.642 67.2538 27.8433L71.7238 31.6754C71.9177 31.8437 72.1576 31.9336 72.4038 31.9301C72.6364 31.9295 72.8631 31.8487 73.0523 31.6989C73.2415 31.5491 73.3839 31.3378 73.4598 31.0943C73.5357 30.8507 73.5412 30.5871 73.4756 30.34C73.41 30.0928 73.2766 29.8744 73.0939 29.7151V29.704Z" fill="black"/>
<path d="M7.52382 17.2664C7.52382 16.9374 7.40582 16.6219 7.19578 16.3893C6.98574 16.1567 6.70086 16.026 6.40382 16.026H1.02382C0.743749 16.0553 0.483612 16.1992 0.29427 16.4296C0.104929 16.66 0 16.9604 0 17.272C0 17.5835 0.104929 17.8839 0.29427 18.1143C0.483612 18.3447 0.743749 18.4887 1.02382 18.5179H6.40382C6.70177 18.515 6.98663 18.3819 7.19639 18.1475C7.40615 17.9131 7.52383 17.5964 7.52382 17.2664Z" fill="black"/>
<path d="M3.47382 4.82884L7.90382 8.6609C8.09763 8.82919 8.33756 8.91907 8.58382 8.91563C8.8164 8.91498 9.04304 8.83415 9.23226 8.68437C9.42148 8.53458 9.56391 8.32326 9.63976 8.07975C9.71562 7.83624 9.72114 7.57261 9.65556 7.32546C9.58999 7.07832 9.45656 6.85991 9.27382 6.70057L4.90382 2.85743C4.66777 2.64741 4.36607 2.54984 4.06507 2.58619C3.76408 2.62254 3.48845 2.78982 3.29882 3.05125C3.10919 3.31267 3.02109 3.64682 3.05391 3.98018C3.08673 4.31355 3.23777 4.61882 3.47382 4.82884Z" fill="black"/>
<path d="M9.51379 26.1045C9.42352 25.9695 9.30942 25.8561 9.17841 25.7714C9.0474 25.6867 8.90221 25.6323 8.75166 25.6116C8.6011 25.5909 8.44831 25.6042 8.30256 25.6509C8.15681 25.6976 8.02115 25.7765 7.90379 25.883L3.47379 29.704C3.23861 29.9074 3.0856 30.2055 3.04813 30.5333C3.01067 30.8611 3.09178 31.1921 3.27379 31.4539C3.38036 31.6022 3.51569 31.722 3.66976 31.8044C3.82383 31.8868 3.99268 31.9298 4.16379 31.9301C4.42996 31.9455 4.69235 31.8551 4.90379 31.6754L9.36379 27.8433C9.59077 27.634 9.73389 27.3338 9.76199 27.0081C9.79008 26.6825 9.70087 26.3577 9.51379 26.1045Z" fill="black"/>
<path d="M41.0238 45.4642C40.7437 45.4935 40.4836 45.6374 40.2943 45.8678C40.1049 46.0982 40 46.3986 40 46.7102C40 47.0217 40.1049 47.3221 40.2943 47.5525C40.4836 47.7829 40.7437 47.9268 41.0238 47.9561H50.3838C50.878 47.9532 51.3511 47.7337 51.6996 47.3456C52.0482 46.9575 52.2438 46.4324 52.2438 45.885V43.1937C52.2608 42.0558 52.0703 40.9257 51.6838 39.8711H63.3938C63.888 39.8712 64.3622 39.6545 64.7126 39.2685C65.063 38.8824 65.2612 38.3585 65.2638 37.8111V35.0755C65.2638 29.5379 61.7138 27.8876 58.6438 26.9241H58.5138L57.5138 26.6361L56.9138 26.4589C56.6238 26.3703 56.4038 25.9495 56.2338 25.5175C59.2338 23.236 61.5638 19.3043 61.5638 15.882V12.7255C61.627 11.0053 61.3811 9.2883 60.8403 7.67416C60.2996 6.06002 59.4748 4.58089 58.4138 3.3226C56.5312 1.22821 53.982 0.0352445 51.3138 0C49.0298 0.0296236 46.8202 0.903337 45.0357 2.48245C43.2511 4.06157 41.994 6.2556 41.4638 8.71628C40.4542 8.3423 39.3983 8.14427 38.3338 8.12928C37.2692 8.14228 36.213 8.34036 35.2038 8.71628C34.6675 6.24467 33.3991 4.04327 31.601 2.4634C29.803 0.883528 27.5789 0.0162581 25.2838 0C22.6152 0.0328751 20.0652 1.22621 18.1838 3.3226C17.0995 4.5692 16.2508 6.04305 15.6876 7.65771C15.1243 9.27236 14.8579 10.9953 14.9038 12.7255V15.8377C14.9038 19.26 17.1738 23.1917 20.2338 25.4732C20.0638 25.9052 19.8438 26.326 19.5538 26.4146L18.9538 26.5918L18.0538 26.8576L17.8638 26.9241C14.7938 27.8987 11.2538 29.5379 11.2538 35.0755V37.7668C11.2483 38.0448 11.2938 38.3212 11.3873 38.5792C11.4809 38.8373 11.6206 39.0716 11.7981 39.2683C11.9757 39.4649 12.1873 39.6197 12.4203 39.7233C12.6533 39.8269 12.9028 39.8772 13.1538 39.8711H24.9038C24.5173 40.9257 24.3268 42.0558 24.3438 43.1937V45.885C24.3438 46.4324 24.5394 46.9575 24.888 47.3456C25.2365 47.7337 25.7096 47.9532 26.2038 47.9561H35.9938C36.1504 47.9725 36.3085 47.9525 36.4577 47.8973C36.607 47.8421 36.7442 47.753 36.8605 47.6357C36.9769 47.5185 37.0699 47.3755 37.1335 47.2162C37.1971 47.0568 37.23 46.8844 37.23 46.7102C37.23 46.5359 37.1971 46.3635 37.1335 46.2042C37.0699 46.0448 36.9769 45.9019 36.8605 45.7846C36.7442 45.6673 36.607 45.5782 36.4577 45.523C36.3085 45.4678 36.1504 45.4478 35.9938 45.4642H26.5538V43.1937C26.5538 39.7272 28.2738 38.5421 31.1738 37.5675L36.4438 40.9787C36.9692 41.4286 37.6146 41.6727 38.2788 41.6727C38.943 41.6727 39.5884 41.4286 40.1138 40.9787L45.3838 37.5564C48.2838 38.531 49.9938 39.7161 49.9938 43.1827V45.3977L41.0238 45.4642ZM59.3638 15.8377C59.3638 19.0828 56.4838 23.1142 53.2038 24.4654C52.5981 24.7502 51.9468 24.897 51.2888 24.897C50.6308 24.897 49.9795 24.7502 49.3738 24.4654C49.1138 24.3546 48.8538 24.2328 48.5938 24.0888C48.5938 24.0888 48.5938 24.0002 48.5938 23.9559V20.8437C48.6858 17.6784 47.749 14.5815 45.9538 12.1164L46.2238 11.8174C46.8038 11.1639 46.9038 11.0421 47.5338 11.2304L48.7138 11.5737C49.5463 11.8743 50.4099 12.0566 51.2838 12.1164C52.1752 12.067 53.0565 11.8844 53.9038 11.5737L55.0838 11.2304C55.7138 11.0421 55.8138 11.1639 56.3938 11.8174C57.1805 12.8114 58.2303 13.5052 59.3938 13.7998L59.3638 15.8377ZM55.5538 28.3971L51.9738 30.7229C51.3838 31.1438 51.2938 31.1438 50.7038 30.7229L47.4738 28.6297C47.7998 27.9887 48.0678 27.3135 48.2738 26.614L48.6838 26.8023C49.5452 27.1738 50.4595 27.3726 51.3838 27.3893C52.305 27.3736 53.2161 27.1748 54.0738 26.8023L54.3938 26.6583C54.6299 27.3443 55.031 27.9457 55.5538 28.3971ZM51.2938 2.49195C54.8838 2.5584 58.7238 5.31615 59.2938 11.1861C58.7784 10.9317 58.3207 10.5533 57.9538 10.0785C57.5559 9.5056 57.0089 9.0816 56.3867 8.86375C55.7644 8.6459 55.0967 8.64468 54.4738 8.86025L53.2738 9.20359C52.6256 9.44356 51.9544 9.59966 51.2738 9.66875C50.5932 9.59917 49.9221 9.44309 49.2738 9.20359L48.1138 8.86025C47.4892 8.64702 46.8207 8.64937 46.1974 8.86698C45.574 9.08459 45.0251 9.50717 44.6238 10.0785C44.5238 10.1893 44.4338 10.3 44.3338 10.3997C44.0638 10.1782 43.7838 9.96779 43.5038 9.77951C43.8483 7.75826 44.8109 5.93014 46.2297 4.60284C47.6485 3.27554 49.4369 2.53008 51.2938 2.49195ZM38.2938 10.6212C41.8938 10.6877 45.7238 13.4454 46.2938 19.3043C45.7794 19.0534 45.3242 18.6744 44.9638 18.1967C44.6627 17.7773 44.2836 17.4345 43.8522 17.1918C43.4208 16.9491 42.9473 16.8121 42.4638 16.7902C42.1264 16.793 41.7906 16.8413 41.4638 16.9342L40.2838 17.2886C39.6352 17.5272 38.9642 17.6833 38.2838 17.7537C37.6032 17.6842 36.9321 17.5281 36.2838 17.2886L35.0938 16.9342C34.4665 16.7298 33.798 16.741 33.1766 16.9665C32.5553 17.1919 32.0103 17.6209 31.6138 18.1967C31.2495 18.6746 30.7911 19.0535 30.2738 19.3043C30.8538 13.4454 34.6838 10.6877 38.2738 10.6212H38.2938ZM46.3738 21.9181V23.9559C46.3738 27.2121 43.4938 31.2435 40.2138 32.5836C39.6094 32.8741 38.9576 33.024 38.2988 33.024C37.64 33.024 36.9882 32.8741 36.3838 32.5836C33.1038 31.2435 30.2238 27.2121 30.2238 23.9559V21.9181C31.3875 21.6307 32.4384 20.9402 33.2238 19.9466C33.8038 19.2932 33.9038 19.1714 34.5338 19.3486L35.7038 19.6919C36.5348 20.0004 37.3989 20.1866 38.2738 20.2457C39.1518 20.1858 40.0191 19.9997 40.8538 19.6919L42.0138 19.3486C42.6538 19.1714 42.7538 19.3486 43.3338 19.9466C44.1245 20.9442 45.1828 21.6351 46.3538 21.9181H46.3738ZM25.2638 2.49195C27.1202 2.53214 28.9076 3.27833 30.326 4.60528C31.7444 5.93223 32.7076 7.75918 33.0538 9.77951C32.7673 9.96955 32.4902 10.1766 32.2238 10.3997C32.112 10.2991 32.0052 10.1919 31.9038 10.0785C31.5046 9.51362 30.9609 9.09516 30.3436 8.87781C29.7263 8.66047 29.0643 8.65435 28.4438 8.86025L27.2638 9.20359C26.6151 9.4416 25.9442 9.59764 25.2638 9.66875C24.5832 9.59966 23.912 9.44356 23.2638 9.20359L22.0838 8.86025C21.4609 8.64468 20.7932 8.6459 20.1709 8.86375C19.5487 9.0816 19.0017 9.5056 18.6038 10.0785C18.2369 10.5533 17.7792 10.9317 17.2638 11.1861C17.8338 5.31615 21.6738 2.5584 25.2638 2.49195ZM17.1938 15.8377V13.7998C18.358 13.5073 19.4084 12.8132 20.1938 11.8174C20.7738 11.1639 20.8838 11.0421 21.5138 11.2304L22.6938 11.5737C23.5231 11.8731 24.3833 12.0555 25.2538 12.1164C26.1318 12.0565 26.9991 11.8704 27.8338 11.5626L28.9938 11.2304C29.6238 11.0421 29.7338 11.1639 30.3138 11.8174C30.3987 11.9225 30.4889 12.0223 30.5838 12.1164C28.7886 14.5815 27.8518 17.6784 27.9438 20.8437V24.0888C27.6911 24.2322 27.4306 24.358 27.1638 24.4654C26.5599 24.7505 25.9103 24.8975 25.2538 24.8975C24.5973 24.8975 23.9477 24.7505 23.3438 24.4654C20.0638 23.1142 17.1838 19.0828 17.1838 15.8377H17.1938ZM29.1938 28.6297L25.9038 30.7229C25.3038 31.1438 25.2238 31.1438 24.6338 30.7229H24.5838L21.0038 28.3971C21.555 27.9536 21.9871 27.3526 22.2538 26.6583L22.5638 26.8023C24.2904 27.5881 26.2272 27.5881 27.9538 26.8023L28.3638 26.614C28.5794 27.3111 28.8505 27.9856 29.1738 28.6297H29.1938ZM32.6238 34.5439L32.0238 34.7211C30.0546 35.1452 28.1919 36.0369 26.5638 37.3349H13.5638V35.1198C13.5638 31.6422 15.2738 30.4571 18.1838 29.4825L23.4438 32.9048C23.9701 33.3574 24.6175 33.6031 25.2838 33.6031C25.9501 33.6031 26.5975 33.3574 27.1238 32.9048L30.4538 30.6897C31.2693 31.8074 32.2297 32.7852 33.3038 33.5914C33.1238 34.0234 32.9038 34.4442 32.6038 34.5439H32.6238ZM38.9738 38.8522C38.3738 39.2842 38.3038 39.2842 37.6938 38.8522L34.0138 36.5485C34.5626 36.1023 34.9941 35.5021 35.2638 34.8097L35.5838 34.9426C36.4376 35.3371 37.3536 35.5402 38.2788 35.5402C39.204 35.5402 40.1199 35.3371 40.9738 34.9426L41.2938 34.8097C41.5601 35.5043 41.9922 36.1055 42.5438 36.5485L38.9738 38.8522ZM44.5738 34.7211L43.9738 34.5439C43.6738 34.4553 43.4538 34.0234 43.2938 33.6025C44.3637 32.7905 45.3234 31.8134 46.1438 30.7008L49.4738 32.9158C49.9992 33.3658 50.6446 33.6099 51.3088 33.6099C51.973 33.6099 52.6184 33.3658 53.1438 32.9158L58.4238 29.4936C61.3238 30.4793 63.0338 31.7086 63.0338 35.1309V37.346H50.0338C48.4057 36.048 46.543 35.1562 44.5738 34.7322V34.7211Z" fill="black"/>
</svg>
