<svg width="60" height="86" viewBox="0 0 60 86" fill="none" xmlns="http://www.w3.org/2000/svg">
<path d="M47.4507 30.0471C47.4507 36.2692 39.5278 41.3001 29.7515 41.3001C19.9752 41.3001 12.0524 36.2692 12.0524 30.0471C12.0524 23.2293 19.9752 17.9644 29.7515 17.9644C39.5278 17.9644 47.4507 23.2612 47.4507 30.0471Z" fill="#FFB541"/>
<path d="M18.7556 30.0471C18.7556 24.027 24.9306 19.2301 33.0935 18.1771C31.9841 18.0355 30.8683 17.9645 29.7515 17.9644C19.9752 17.9644 12.0524 23.2293 12.0524 30.0471C12.0524 36.2692 19.9752 41.3001 29.7515 41.3001C30.8713 41.3035 31.9903 41.236 33.1031 41.098C24.969 40.0982 18.7556 35.5353 18.7556 30.0471Z" fill="#FF9A00"/>
<path d="M35.3599 43.6081V47.6499C35.3666 47.8817 35.4349 48.1063 35.5561 48.2954C35.6774 48.4846 35.8463 48.63 36.0417 48.7135L36.4066 48.873L42.4184 51.447L42.8602 51.6384L44.7809 52.4468C50.0243 50.0536 49.5826 42.0233 46.9896 40.5449C46.1901 40.1245 45.4699 39.5398 44.8673 38.8219C43.8299 37.3236 43.2513 35.4978 43.2155 33.6102C42.2565 34.3309 41.0843 34.6164 39.9407 34.4079C39.8815 36.2491 39.4306 38.0489 38.6245 39.6606C37.8185 41.2722 36.6802 42.6503 35.3022 43.6826L35.3599 43.6081Z" fill="#554E56"/>
<path d="M40.7666 48.9262L40.4017 48.7666H40.3056C40.1343 48.6622 39.9918 48.508 39.8937 48.3206C39.7955 48.1332 39.7454 47.9197 39.7486 47.703V44.1825C39.7505 43.9971 39.7903 43.8146 39.8652 43.6487C39.94 43.4829 40.048 43.3381 40.1808 43.2252C41.9732 41.6761 43.272 39.5334 43.8877 37.1095C43.4697 35.9993 43.2417 34.8127 43.2155 33.6102C42.2561 34.3299 41.0842 34.6153 39.9407 34.4079C39.8815 36.2491 39.4306 38.0489 38.6245 39.6606C37.8185 41.2722 36.6802 42.6503 35.3022 43.6826L35.3887 43.6188V47.6499C35.3954 47.8817 35.4637 48.1063 35.5849 48.2954C35.7062 48.4846 35.8751 48.63 36.0705 48.7135L36.4355 48.873L42.4472 51.447L42.889 51.6384L44.8097 52.4468C45.4254 52.1702 45.9987 51.7899 46.5095 51.3193L40.7666 48.9262Z" fill="#433F43"/>
<path d="M14.7412 52.5425L17.872 51.2023L23.2883 48.9262L23.6436 48.7773C23.8384 48.6926 24.0066 48.5469 24.1277 48.358C24.2488 48.1691 24.3175 47.9452 24.3255 47.7137V43.7358C22.9202 42.7232 21.759 41.3464 20.9424 39.7248C20.1258 38.1031 19.6784 36.2854 19.639 34.4291C18.5017 34.6321 17.3373 34.3468 16.3834 33.6314C16.3517 35.5282 15.7691 37.3631 14.722 38.8644C14.1287 39.5819 13.4142 40.1637 12.6189 40.5768C10.0356 42.0872 9.31529 50.2876 14.7412 52.5425Z" fill="#554E56"/>
<path d="M16.998 40.5981C17.7959 40.185 18.511 39.5991 19.1012 38.875C19.4933 38.3734 19.8169 37.8108 20.0615 37.2052C19.8388 36.3069 19.7163 35.3817 19.6966 34.4504C18.5593 34.6534 17.3949 34.3681 16.441 33.6527C16.408 35.5474 15.8293 37.3809 14.7893 38.8857C14.1905 39.6011 13.4733 40.1824 12.6765 40.5981C10.0644 42.0872 9.34409 50.2876 14.77 52.5425L17.3534 51.4789C13.8769 48.3306 14.7124 41.9063 16.998 40.5981Z" fill="#433F43"/>
<path d="M47.4603 78.9733V83.8659H54.8838C55.3295 83.8659 55.757 83.6698 56.0722 83.3207C56.3873 82.9716 56.5644 82.4982 56.5644 82.0045V78.9733H47.4603Z" fill="#FED2A4"/>
<path d="M47.4603 78.9733H52.0316V83.8659H47.4603V78.9733Z" fill="#FFBD86"/>
<path d="M2.95776 78.9733V82.0045C2.95776 82.4982 3.13483 82.9716 3.45 83.3207C3.76518 83.6698 4.19264 83.8659 4.63837 83.8659H12.0618V78.9733H2.95776Z" fill="#FED2A4"/>
<path d="M7.5194 80.3028V78.9733H2.95776V82.0045C2.95776 82.4982 3.13483 82.9716 3.45 83.3207C3.76518 83.6698 4.19264 83.8659 4.63837 83.8659H8.31649C7.7957 82.7665 7.52225 81.5442 7.5194 80.3028Z" fill="#FFBD86"/>
<path d="M50.8982 54.9143L36.5891 48.7773C34.9469 52.2128 29.7706 56.7225 29.7706 56.7225C26.9594 54.7048 24.6195 51.9785 22.9426 48.7666L8.64305 54.9143C6.95611 55.769 5.52528 57.1406 4.51956 58.867C3.51384 60.5934 2.97525 62.6025 2.96741 64.657V72.0066H12.0715V83.8659H47.4602V72.0066H56.5643V64.657C56.5573 62.6037 56.0201 60.5953 55.0162 58.8691C54.0122 57.1428 52.5834 55.7706 50.8982 54.9143Z" fill="#C69292"/>
<path d="M7.51944 59.8814C7.51647 57.9007 8.20462 55.9954 9.44013 54.5633L8.64305 54.9143C6.95611 55.769 5.52528 57.1406 4.51956 58.867C3.51384 60.5934 2.97525 62.6025 2.96741 64.657V72.0066H7.51944V59.8814Z" fill="#BB8080"/>
<path d="M54.9222 58.6689L48.8144 65.944C47.9416 66.9887 47.4578 68.3603 47.4603 69.7836V72.0066H56.5644V64.657C56.59 62.5208 56.0162 60.4285 54.9222 58.6689Z" fill="#BB8080"/>
<path d="M52.0316 62.1256L48.8144 65.944C47.9426 66.9936 47.4592 68.3681 47.4603 69.7943V72.0066H52.0316V62.1256Z" fill="#AF6C6C"/>
<path d="M4.6001 58.6689L10.6983 65.944C11.5738 66.9876 12.0609 68.3591 12.062 69.7836V72.0066H2.95791V64.657C2.92783 62.5201 3.50204 60.4263 4.6001 58.6689Z" fill="#BB8080"/>
<path d="M7.51947 62.1682L4.63843 58.6689C3.54037 60.4263 2.96616 62.5201 2.99624 64.657V72.0066H7.51947V62.1682Z" fill="#AF6C6C"/>
<path d="M12.0619 72.0066H2.40084C2.0187 72.0121 1.65376 72.1835 1.38442 72.4838C1.11507 72.7841 0.962809 73.1894 0.960327 73.6126V77.3672C0.962809 77.7905 1.11507 78.1958 1.38442 78.4961C1.65376 78.7964 2.0187 78.9677 2.40084 78.9733H12.0619V72.0066Z" fill="#AF6C6C"/>
<path d="M7.51948 72.0066H2.40084C2.0187 72.0121 1.65376 72.1835 1.38442 72.4838C1.11507 72.7841 0.962809 73.1894 0.960327 73.6126V77.3672C0.962809 77.7905 1.11507 78.1958 1.38442 78.4961C1.65376 78.7964 2.0187 78.9677 2.40084 78.9733H7.51948V72.0066Z" fill="#9C5E5E"/>
<path d="M56.8621 72.0066H47.4603V78.9733H56.8621C57.245 78.9704 57.6114 78.8 57.8813 78.4991C58.1512 78.1982 58.3026 77.7913 58.3026 77.3672V73.6126C58.3026 73.1885 58.1512 72.7816 57.8813 72.4807C57.6114 72.1798 57.245 72.0094 56.8621 72.0066Z" fill="#AF6C6C"/>
<path d="M47.4603 72.0066H52.0316V78.9733H47.4603V72.0066Z" fill="#9C5E5E"/>
<path d="M42.8025 66.412H35.7247C35.4701 66.412 35.2258 66.524 35.0457 66.7235C34.8656 66.923 34.7644 67.1935 34.7644 67.4756V78.7074C34.7644 78.9894 34.8656 79.26 35.0457 79.4594C35.2258 79.6589 35.4701 79.771 35.7247 79.771H42.8025C43.0572 79.771 43.3015 79.6589 43.4816 79.4594C43.6617 79.26 43.7628 78.9894 43.7628 78.7074V67.4756C43.7628 67.1935 43.6617 66.923 43.4816 66.7235C43.3015 66.524 43.0572 66.412 42.8025 66.412Z" fill="#AF6C6C"/>
<path d="M39.2588 78.7074V67.4756C39.2588 67.1935 39.36 66.923 39.5401 66.7235C39.7202 66.524 39.9645 66.412 40.2192 66.412H35.7247C35.4701 66.412 35.2258 66.524 35.0457 66.7235C34.8656 66.923 34.7644 67.1935 34.7644 67.4756V78.7074C34.7644 78.9894 34.8656 79.26 35.0457 79.4594C35.2258 79.6589 35.4701 79.771 35.7247 79.771H40.2192C39.9645 79.771 39.7202 79.6589 39.5401 79.4594C39.36 79.26 39.2588 78.9894 39.2588 78.7074Z" fill="#9C5E5E"/>
<path d="M23.5381 66.412H16.4507C16.196 66.412 15.9517 66.524 15.7716 66.7235C15.5915 66.923 15.4904 67.1935 15.4904 67.4756V78.7074C15.4904 78.9894 15.5915 79.26 15.7716 79.4594C15.9517 79.6589 16.196 79.771 16.4507 79.771H23.5381C23.7928 79.771 24.037 79.6589 24.2171 79.4594C24.3972 79.26 24.4984 78.9894 24.4984 78.7074V67.4756C24.4984 67.1935 24.3972 66.923 24.2171 66.7235C24.037 66.524 23.7928 66.412 23.5381 66.412Z" fill="#AF6C6C"/>
<path d="M19.9944 78.7074V67.4756C19.9944 67.1935 20.0956 66.923 20.2757 66.7235C20.4558 66.524 20.7 66.412 20.9547 66.412H16.4507C16.196 66.412 15.9517 66.524 15.7716 66.7235C15.5915 66.923 15.4904 67.1935 15.4904 67.4756V78.7074C15.4904 78.9894 15.5915 79.26 15.7716 79.4594C15.9517 79.6589 16.196 79.771 16.4507 79.771H20.9451C20.6921 79.7682 20.4503 79.6549 20.2723 79.4557C20.0942 79.2565 19.9944 78.9876 19.9944 78.7074Z" fill="#9C5E5E"/>
<path d="M42.8025 66.412H35.7247C35.4701 66.412 35.2258 66.524 35.0457 66.7235C34.8656 66.923 34.7644 67.1935 34.7644 67.4756V68.5392C34.777 69.5483 35.1478 70.5113 35.7966 71.2199C36.4454 71.9285 37.32 72.3258 38.2313 72.3257H40.3344C41.2539 72.3257 42.1357 71.9211 42.7858 71.2011C43.436 70.481 43.8013 69.5044 43.8013 68.486V67.4224C43.7888 67.1421 43.6768 66.8787 43.4898 66.6894C43.3027 66.5001 43.0557 66.4004 42.8025 66.412Z" fill="#BB8080"/>
<path d="M39.2588 68.5073V67.4437C39.2588 67.1616 39.36 66.8911 39.5401 66.6916C39.7202 66.4921 39.9645 66.3801 40.2192 66.3801H35.7247C35.4701 66.3801 35.2258 66.4921 35.0457 66.6916C34.8656 66.8911 34.7644 67.1616 34.7644 67.4437V68.5073C34.7695 69.522 35.137 70.4931 35.7866 71.2086C36.4362 71.9241 37.3151 72.3257 38.2313 72.3257H40.3344C40.7511 72.3276 41.1645 72.2447 41.554 72.081C40.8878 71.8161 40.3107 71.3317 39.9004 70.6928C39.4901 70.0539 39.2662 69.2913 39.2588 68.5073Z" fill="#AF6C6C"/>
<path d="M23.5381 66.412H16.4507C16.196 66.412 15.9517 66.524 15.7716 66.7235C15.5915 66.923 15.4904 67.1935 15.4904 67.4756V68.5392C15.503 69.5502 15.8751 70.5148 16.526 71.2237C17.1769 71.9326 18.0539 72.3286 18.9668 72.3257H21.0219C21.9414 72.3257 22.8232 71.9211 23.4734 71.2011C24.1235 70.481 24.4888 69.5044 24.4888 68.486V67.4224C24.4766 67.1515 24.3713 66.896 24.1946 66.7081C24.0178 66.5203 23.783 66.4144 23.5381 66.412Z" fill="#BB8080"/>
<path d="M19.9944 68.5073V67.4437C19.9944 67.1616 20.0956 66.8911 20.2757 66.6916C20.4558 66.4921 20.7 66.3801 20.9547 66.3801H16.4507C16.196 66.3801 15.9517 66.4921 15.7716 66.6916C15.5915 66.8911 15.4904 67.1616 15.4904 67.4437V68.5073C15.4954 69.5238 15.8643 70.4966 16.5159 71.2124C17.1676 71.9281 18.049 72.3285 18.9668 72.3257H21.0219C21.4385 72.3266 21.8518 72.2437 22.2416 72.081C21.5835 71.8087 21.016 71.3209 20.6146 70.6825C20.2131 70.044 19.9968 69.2853 19.9944 68.5073Z" fill="#AF6C6C"/>
<path d="M29.7707 56.7225C29.7707 56.7225 34.9469 52.2128 36.5891 48.7773L36.2434 48.6284C36.0498 48.5432 35.8829 48.3971 35.7634 48.2081C35.644 48.0191 35.5771 47.7954 35.5712 47.5648V42.1084C33.8828 43.4162 31.8694 44.1112 29.8091 44.0974C27.7375 44.1213 25.7047 43.4744 23.9606 42.2361V47.5541C23.9559 47.7851 23.8895 48.0094 23.7699 48.1987C23.6503 48.388 23.4827 48.5338 23.2884 48.6177L22.9426 48.7666C24.6196 51.9785 26.9594 54.7048 29.7707 56.7225Z" fill="#FFBD86"/>
<path d="M28.3879 44.0017C26.8071 43.7937 25.2898 43.1899 23.9511 42.2361V47.5541C23.9464 47.7851 23.88 48.0094 23.7604 48.1987C23.6407 48.388 23.4732 48.5338 23.2788 48.6177L22.9331 48.7667C24.3122 51.4337 26.1683 53.7609 28.3879 55.6057V44.0017Z" fill="#F6A96C"/>
<path d="M16.6332 51.4789L25.1418 60.9025C25.3001 61.0765 25.5142 61.1742 25.7373 61.1742C25.9603 61.1742 26.1744 61.0765 26.3327 60.9025L29.5114 57.4351C29.6686 57.2598 29.7568 57.0227 29.7568 56.7756C29.7568 56.5286 29.6686 56.2915 29.5114 56.1162L22.933 48.8198L16.6332 51.4789Z" fill="#BB8080"/>
<path d="M34.3803 60.9025L42.889 51.4789L36.5795 48.7773L30.0107 56.063C29.9306 56.1484 29.8668 56.2508 29.8232 56.3641C29.7797 56.4774 29.7572 56.5993 29.7572 56.7225C29.7572 56.8456 29.7797 56.9675 29.8232 57.0808C29.8668 57.1942 29.9306 57.2966 30.0107 57.3819L33.1799 60.9025C33.3398 61.0772 33.5554 61.1752 33.7801 61.1752C34.0048 61.1752 34.2204 61.0772 34.3803 60.9025Z" fill="#BB8080"/>
<path d="M23.6821 53.7337C23.4705 53.4837 23.3165 53.1808 23.2333 52.8507C23.1501 52.5206 23.1401 52.1732 23.2043 51.8379C23.2684 51.5026 23.4047 51.1895 23.6016 50.9251C23.7985 50.6608 24.0502 50.453 24.3351 50.3195L22.933 48.7666L16.6332 51.4789L25.1418 60.9025C25.3001 61.0765 25.5142 61.1742 25.7373 61.1742C25.9603 61.1742 26.1744 61.0765 26.3327 60.9025L28.2534 58.7752L23.6821 53.7337Z" fill="#AF6C6C"/>
<path d="M35.0141 57.4351C34.857 57.2598 34.7688 57.0227 34.7688 56.7757C34.7688 56.5286 34.857 56.2915 35.0141 56.1162L40.1904 50.3727L36.5795 48.8305L30.0107 56.1162C29.9306 56.2016 29.8668 56.304 29.8232 56.4173C29.7797 56.5306 29.7572 56.6525 29.7572 56.7757C29.7572 56.8988 29.7797 57.0207 29.8232 57.134C29.8668 57.2473 29.9306 57.3497 30.0107 57.4351L33.1895 60.9557C33.3478 61.1297 33.5618 61.2274 33.7849 61.2274C34.008 61.2274 34.222 61.1297 34.3803 60.9557L36.301 58.8284L35.0141 57.4351Z" fill="#AF6C6C"/>
<path d="M29.7707 18.794C24.0086 18.794 18.842 20.5596 15.6056 23.2931V27.7284C16.1321 27.2029 16.7513 26.804 17.424 26.5568C18.0968 26.3097 18.8085 26.2197 19.5142 26.2925H23.8838C25.2135 26.287 26.5033 25.7886 27.5476 24.8769C28.5919 23.9651 29.3306 22.6924 29.6458 21.2616C29.6543 21.2203 29.675 21.1832 29.7045 21.1563C29.7341 21.1293 29.7708 21.114 29.8091 21.1127C29.849 21.1116 29.888 21.1258 29.9195 21.153C29.951 21.1801 29.9731 21.2185 29.982 21.2616C30.2957 22.6933 31.0339 23.967 32.0786 24.8791C33.1232 25.7912 34.4138 26.2889 35.744 26.2925H40.1136C40.8205 26.1958 41.5379 26.2745 42.2139 26.5228C42.89 26.7712 43.5076 27.183 44.0222 27.7284V23.3995C40.8147 20.6128 35.6192 18.794 29.7707 18.794Z" fill="#554E56"/>
<path d="M20.5802 20.4214C18.7898 21.0824 17.1046 22.0515 15.5864 23.2931V27.7284C16.113 27.2029 16.7321 26.804 17.4049 26.5568C18.0776 26.3097 18.7893 26.2197 19.495 26.2925H20.5802V20.4214Z" fill="#433F43"/>
<path d="M44.0318 27.388C43.4871 26.8476 42.8451 26.4412 42.1482 26.1955C41.4513 25.9499 40.7153 25.8705 39.9888 25.9628V34.2271C39.9888 34.3547 39.9888 34.4823 39.9888 34.61C42.6201 35.0673 45.0882 32.9507 45.0882 30.2704C45.0772 29.1964 44.6999 28.1667 44.0318 27.388Z" fill="#FFBD86"/>
<path d="M43.2155 26.7499C42.2387 26.0864 41.0877 25.809 39.9503 25.9628V34.2271C39.9503 34.3547 39.9503 34.4823 39.9503 34.61C41.0904 34.8029 42.2545 34.5185 43.2155 33.8122V26.7499Z" fill="#F6A96C"/>
<path d="M19.6487 34.3334V25.9628C18.9229 25.888 18.191 25.9756 17.4964 26.2205C16.8019 26.4653 16.1589 26.8624 15.6057 27.388C14.9446 28.17 14.5743 29.1993 14.5685 30.2704C14.6106 30.9411 14.7807 31.5943 15.0675 32.1868C15.3543 32.7793 15.7513 33.2977 16.2323 33.7078C16.7133 34.1179 17.2674 34.4104 17.8579 34.5659C18.4485 34.7214 19.0621 34.7364 19.6583 34.61L19.6487 34.3334Z" fill="#FFBD86"/>
<path d="M19.6487 33.8123C19.1726 33.4918 18.767 33.0577 18.4615 32.5416C18.156 32.0255 17.9584 31.4405 17.8829 30.8291C17.8075 30.2177 17.8562 29.5953 18.0254 29.0074C18.1946 28.4195 18.4802 27.8808 18.8612 27.4306C19.112 27.2137 19.3751 27.0148 19.6487 26.835V26.0053C18.9229 25.9305 18.191 26.0182 17.4964 26.263C16.8019 26.5078 16.1589 26.9049 15.6057 27.4306C14.9446 28.2125 14.5743 29.2418 14.5685 30.313C14.6106 30.9836 14.7807 31.6368 15.0675 32.2293C15.3543 32.8218 15.7513 33.3403 16.2323 33.7504C16.7133 34.1605 17.2674 34.4529 17.8579 34.6084C18.4485 34.7639 19.0621 34.779 19.6583 34.6525V33.8548L19.6487 33.8123Z" fill="#F6A96C"/>
<path d="M27.7059 5.58396H32.0467C31.5953 3.05257 30.683 1.32951 29.6266 1.32951C28.5702 1.32951 27.7059 3.05257 27.2065 5.58396H27.7059Z" fill="#FFB541"/>
<path d="M31.0287 2.46758C30.9021 2.16212 30.7066 1.89794 30.461 1.70047C30.2154 1.503 29.9281 1.37891 29.6266 1.34015C28.5798 1.34015 27.7059 3.0632 27.2065 5.5946H29.7707C29.9555 4.45491 30.3872 3.38188 31.0287 2.46758Z" fill="#FF9A00"/>
<path d="M29.6266 14.1992C36.4355 14.1992 42.38 16.8051 45.578 20.6766C45.4904 16.6163 43.9748 12.7542 41.354 9.91325C38.7333 7.07228 35.2145 5.4769 31.5473 5.46696H27.7059C24.0395 5.47959 20.5221 7.07585 17.9019 9.91626C15.2817 12.7567 13.7653 16.6171 13.6753 20.6766C16.8732 16.8051 22.8178 14.1992 29.6266 14.1992Z" fill="#FFC265"/>
<path d="M32.2868 5.48825H31.5473H27.7059C24.0419 5.50349 20.5273 7.09915 17.9078 9.93673C15.2884 12.7743 13.7702 16.6305 13.6753 20.6873C15.3553 18.743 17.4012 17.2323 19.6678 16.2626C20.5459 13.2675 22.2206 10.6361 24.4724 8.71347C26.7242 6.79081 29.4481 5.66661 32.2868 5.48825Z" fill="#FFB541"/>
<path d="M29.5018 9.7427C23.6725 9.7427 18.4674 11.5934 14.9718 14.497C14.1547 16.434 13.713 18.5391 13.6753 20.6766C16.8732 16.8051 22.8178 14.1992 29.6266 14.1992C36.4355 14.1992 42.38 16.8051 45.578 20.6766C45.5385 18.6831 45.147 16.7175 44.4255 14.8906C40.9395 11.6997 35.5327 9.7427 29.5018 9.7427Z" fill="#FFB541"/>
<path d="M19.6678 16.2626C20.2649 14.1954 21.2463 12.2896 22.5489 10.668C19.8107 11.3774 17.2259 12.6786 14.943 14.497C14.1283 16.4349 13.6867 18.5394 13.6465 20.6766C15.3421 18.7408 17.3964 17.2349 19.6678 16.2626Z" fill="#FF9A00"/>
<path d="M12.062 29.9513C12.062 27.5795 13.2432 25.3778 15.2503 23.5697C18.4483 20.6873 23.7494 19.145 29.7708 19.145C34.8702 19.145 39.4702 20.2086 42.697 22.3359C45.6549 24.3355 47.4987 27.0051 47.4987 29.9513C47.4974 30.2004 47.4814 30.4491 47.4507 30.6959C47.8848 29.603 48.1104 28.4225 48.1133 27.2285C48.1133 20.0385 39.8544 13.8695 29.6651 13.8695C19.4759 13.8695 11.1785 20.0385 11.1785 27.2285C11.1868 28.7842 11.5643 30.3101 12.2733 31.6531C12.1353 31.0987 12.0642 30.5264 12.062 29.9513Z" fill="#FFCF86"/>
<path d="M18.333 21.4956C20.9452 17.5922 26.1214 14.6672 32.2869 14.0503C31.4225 13.9546 30.5294 13.9121 29.6267 13.9121C19.4374 13.9121 11.1785 20.081 11.1785 27.271C11.1868 28.8267 11.5643 30.3526 12.2733 31.6957C12.1353 31.1412 12.0642 30.569 12.062 29.9939C12.062 27.622 13.2432 25.4203 15.2503 23.6122C16.1884 22.758 17.2251 22.0462 18.333 21.4956Z" fill="#FFC265"/>
<path d="M35.7632 25.9628C34.4335 25.9573 33.1437 25.4589 32.0994 24.5471C31.0551 23.6354 30.3164 22.3627 30.0012 20.9319C29.9923 20.8888 29.9703 20.8504 29.9387 20.8233C29.9072 20.7961 29.8682 20.7819 29.8283 20.783C29.7901 20.7843 29.7533 20.7996 29.7237 20.8266C29.6942 20.8535 29.6735 20.8906 29.6651 20.9319C29.3483 22.3618 28.6092 23.6334 27.5652 24.5449C26.5213 25.4564 25.2323 25.9554 23.903 25.9628H19.495V34.3334C19.4959 35.8357 19.7679 37.3227 20.295 38.7069C20.8221 40.0912 21.5936 41.3448 22.5644 42.3941C23.5351 43.4435 24.6854 44.2674 25.9476 44.8174C27.2099 45.3674 28.5587 45.6325 29.9147 45.5971C32.6276 45.5774 35.2236 44.3715 37.1374 42.242C39.0512 40.1124 40.1278 37.2317 40.1328 34.2271V25.9628H35.7632Z" fill="#FED2A4"/>
<path d="M24.0566 34.3334V25.9628H19.495V34.3334C19.4959 35.8357 19.7679 37.3227 20.295 38.7069C20.8221 40.0912 21.5936 41.3448 22.5644 42.3941C23.5351 43.4435 24.6854 44.2674 25.9476 44.8174C27.2099 45.3674 28.5587 45.6325 29.9147 45.5971C30.6644 45.5974 31.4117 45.5047 32.1427 45.3205C29.8559 44.8066 27.8006 43.4311 26.3263 41.4279C24.852 39.4247 24.05 36.9177 24.0566 34.3334Z" fill="#FFBD86"/>
<path d="M42.9754 65.0825H35.8881C35.3379 65.0825 34.8103 65.3245 34.4213 65.7554C34.0323 66.1862 33.8137 66.7706 33.8137 67.3799V78.5904C33.8137 79.1997 34.0323 79.784 34.4213 80.2149C34.8103 80.6457 35.3379 80.8878 35.8881 80.8878H42.9754C43.5256 80.8878 44.0532 80.6457 44.4422 80.2149C44.8312 79.784 45.0498 79.1997 45.0498 78.5904V67.3799C45.0498 66.7706 44.8312 66.1862 44.4422 65.7554C44.0532 65.3245 43.5256 65.0825 42.9754 65.0825ZM36.0609 67.5713H42.7833V68.4116C42.7834 69.1009 42.5368 69.7621 42.0976 70.2504C41.6584 70.7388 41.0625 71.0146 40.4401 71.0174H38.4138C37.7914 71.0146 37.1954 70.7388 36.7563 70.2504C36.3171 69.7621 36.0705 69.1009 36.0705 68.4116L36.0609 67.5713ZM36.0609 78.3989V72.7937C36.771 73.2576 37.5798 73.5036 38.4042 73.5063H40.4593C41.2837 73.5036 42.0925 73.2576 42.8026 72.7937V78.3989H36.0609Z" fill="black"/>
<path d="M16.6235 80.8878H23.7013C24.2523 80.8878 24.7809 80.6461 25.1715 80.2155C25.562 79.785 25.7827 79.2006 25.7852 78.5904V67.3799C25.7827 66.7696 25.562 66.1853 25.1715 65.7547C24.7809 65.3242 24.2523 65.0825 23.7013 65.0825H16.6235C16.0734 65.0825 15.5458 65.3245 15.1568 65.7554C14.7677 66.1862 14.5492 66.7706 14.5492 67.3799V78.5904C14.5492 79.1997 14.7677 79.784 15.1568 80.2149C15.5458 80.6457 16.0734 80.8878 16.6235 80.8878ZM16.7964 78.3989V72.7937C17.5059 73.259 18.3151 73.5051 19.1396 73.5063H21.1948C22.0192 73.5036 22.828 73.2576 23.538 72.7937V78.3989H16.7964ZM16.7964 67.5713H23.5188V68.4116C23.5188 69.1009 23.2723 69.7621 22.8331 70.2504C22.3939 70.7388 21.7979 71.0146 21.1756 71.0174H19.1396C18.5173 71.0146 17.9213 70.7388 17.4821 70.2504C17.043 69.7621 16.7964 69.1009 16.7964 68.4116V67.5713Z" fill="black"/>
<path d="M8.37421 53.6699C6.46856 54.6013 4.85046 56.1297 3.71917 58.0668C2.58787 60.0038 1.99276 62.265 2.00712 64.5719V70.7409C1.438 70.8831 0.929411 71.2353 0.564731 71.7397C0.200052 72.2441 0.000925257 72.8708 0 73.5169L0 77.2821C0.00136164 77.927 0.200841 78.5521 0.565627 79.0547C0.930413 79.5573 1.43878 79.9074 2.00712 80.0475V81.8982C2.00459 82.3069 2.07494 82.7122 2.21413 83.0908C2.35332 83.4694 2.55862 83.8138 2.81825 84.1043C3.07788 84.3948 3.38673 84.6257 3.7271 84.7837C4.06747 84.9417 4.43266 85.0238 4.80173 85.0252H55.0566C55.4265 85.0252 55.7927 84.9442 56.1342 84.7868C56.4757 84.6294 56.7856 84.3987 57.0463 84.108C57.3069 83.8174 57.5131 83.4725 57.6529 83.0932C57.7927 82.714 57.8633 82.3078 57.8608 81.8982V79.9731C58.3673 79.7805 58.8069 79.4178 59.1185 78.9355C59.4301 78.4531 59.5981 77.8752 59.599 77.2821V73.5169C59.5981 72.9239 59.4301 72.3459 59.1185 71.8635C58.8069 71.3812 58.3673 71.0185 57.8608 70.826V64.5719C57.8731 62.2641 57.2761 60.0027 56.1432 58.0657C55.0102 56.1288 53.3908 54.6009 51.4841 53.6699L47.4218 51.9256C48.394 50.9767 49.1255 49.7631 49.5442 48.405C49.6435 48.0933 49.627 47.7507 49.4982 47.4525C49.4345 47.3048 49.3451 47.1725 49.2351 47.0631C49.1252 46.9537 48.9969 46.8694 48.8576 46.8149C48.5761 46.7049 48.2667 46.7232 47.9975 46.8658C47.7282 47.0085 47.5212 47.2637 47.4218 47.5754C46.9965 48.9902 46.0859 50.1631 44.8865 50.8407L36.8773 47.4052V44.1399C39.2607 42.1064 40.8239 39.1139 41.2276 35.8118C41.6466 35.7869 42.062 35.712 42.4665 35.5885C42.7248 37.0847 43.3119 38.4875 44.1759 39.6728C44.8561 40.5016 45.6746 41.177 46.5863 41.6617C46.9375 41.9174 47.2065 42.2898 47.3546 42.7253C47.4155 42.8742 47.5027 43.008 47.611 43.1189C47.7193 43.2298 47.8466 43.3156 47.9854 43.3711C48.1241 43.4266 48.2715 43.4508 48.4189 43.4422C48.5662 43.4336 48.7105 43.3923 48.8432 43.3209C49.1127 43.1822 49.3217 42.9309 49.4243 42.6219C49.5269 42.3129 49.5148 41.9715 49.3906 41.6724C49.0339 40.7442 48.409 39.9735 47.6139 39.4813C46.9636 39.1417 46.3771 38.6689 45.8853 38.088C45.6625 37.7929 45.4693 37.4719 45.3091 37.1307C47.0719 35.6051 48.2485 33.3976 48.6031 30.9511C49.2629 29.1415 49.4418 27.1607 49.1185 25.2422C48.7952 23.3237 47.9832 21.5477 46.7784 20.1236C46.5802 16.0882 45.0796 12.2659 42.5502 9.35316C40.0207 6.4404 36.6306 4.63095 32.9975 4.25445C32.3348 1.52097 31.144 0 29.6747 0C28.2053 0 27.0241 1.52097 26.3615 4.25445C22.7385 4.63539 19.3591 6.44317 16.8373 9.34931C14.3155 12.2554 12.8188 16.0671 12.6189 20.0916C11.2946 21.6486 10.4457 23.6273 10.1924 25.7479C9.93908 27.8684 10.2941 30.0235 11.2072 31.9084C11.7513 34.0045 12.8685 35.8624 14.4052 37.2264C14.2585 37.5377 14.0813 37.8302 13.877 38.0986C13.3835 38.682 12.7934 39.155 12.1388 39.4919C10.487 40.4173 9.44019 43.1082 9.60345 46.0651C9.64159 47.2021 9.88863 48.3186 10.3295 49.3464C10.7704 50.3741 11.3958 51.2915 12.1676 52.0426L8.39342 53.6593L8.37421 53.6699ZM4.98419 60.6259L10.0452 66.6885C10.7292 67.5037 11.11 68.575 11.1112 69.6879V70.6345H4.25433V64.5719C4.23492 63.2134 4.48403 61.8666 4.98419 60.6259ZM2.56412 77.6437C2.48007 77.6437 2.39946 77.6068 2.34003 77.5409C2.2806 77.4751 2.24721 77.3858 2.24721 77.2927V73.5169C2.24721 73.4238 2.2806 73.3346 2.34003 73.2687C2.39946 73.2029 2.48007 73.1659 2.56412 73.1659H11.1112V77.6437H2.56412ZM4.25433 81.8982V80.122H11.1112V82.5364H4.80173C4.72775 82.535 4.65475 82.5173 4.58701 82.4844C4.51927 82.4514 4.45813 82.4038 4.40717 82.3444C4.35621 82.285 4.31645 82.215 4.29021 82.1383C4.26396 82.0617 4.25177 81.9801 4.25433 81.8982ZM55.604 64.5719V70.6771H48.7471V69.7305C48.7483 68.6176 49.1291 67.5463 49.8131 66.7311L54.8741 60.6791C55.3646 61.9045 55.6134 63.2316 55.604 64.5719ZM57.0253 73.1659C57.1103 73.1659 57.1919 73.2025 57.2528 73.2681C57.3138 73.3336 57.3493 73.4229 57.3518 73.5169V77.2821C57.3493 77.3762 57.3138 77.4654 57.2528 77.531C57.1919 77.5965 57.1103 77.6331 57.0253 77.6331H48.7471V73.1659H57.0253ZM55.604 81.8982C55.604 82.0618 55.5453 82.2187 55.4408 82.3344C55.3364 82.4501 55.1947 82.5151 55.047 82.5151H48.7471V80.122H55.604V81.8982ZM53.6161 58.4987L48.1613 65.0187C47.0931 66.2983 46.4998 67.977 46.4999 69.7198V82.4832H31.0576V60.0197L32.5557 61.6895C32.7385 61.8922 32.9556 62.0529 33.1945 62.1625C33.4335 62.2722 33.6896 62.3286 33.9482 62.3286C34.2068 62.3286 34.4629 62.2722 34.7019 62.1625C34.9408 62.0529 35.1579 61.8922 35.3407 61.6895L43.3308 52.8403L50.639 56.0311C51.7771 56.6124 52.7916 57.4533 53.6161 58.4987ZM20.6666 34.2483V27.1221H23.9126C25.0973 27.1218 26.2629 26.7925 27.3031 26.1645C28.3432 25.5365 29.2246 24.6297 29.8667 23.5271C29.9368 23.6596 30.0138 23.7874 30.0972 23.91L30.2029 24.0483C30.8614 24.9996 31.7091 25.7698 32.6801 26.2993C33.6512 26.8287 34.7194 27.103 35.8017 27.1009H39.038V34.1101C39.052 36.8096 38.0972 39.4048 36.3835 41.3247C34.6699 43.2445 32.3378 44.3318 29.9003 44.3473C27.4629 44.3629 25.1197 43.3053 23.3862 41.4074C21.6528 39.5095 20.671 36.9266 20.657 34.2271L20.6666 34.2483ZM16.3259 28.2921C16.9075 27.7071 17.6208 27.3066 18.3906 27.1328V33.3017C17.8772 33.2755 17.3803 33.093 16.9545 32.7743C16.5287 32.4555 16.1905 32.013 15.9771 31.4952C15.7637 30.9774 15.6833 30.4044 15.7449 29.8393C15.8064 29.2742 16.0074 28.7389 16.3259 28.2921ZM27.754 6.62631H31.5954C33.2961 6.63133 34.979 7.00995 36.5466 7.74023C38.1143 8.47051 39.5356 9.53796 40.7282 10.8808C38.1188 9.64969 35.3516 8.87812 32.5269 8.59399C32.2302 8.56296 31.9345 8.66375 31.7048 8.87419C31.4752 9.08463 31.3305 9.38747 31.3025 9.7161C31.2744 10.0447 31.3654 10.3722 31.5554 10.6266C31.7455 10.8809 32.0189 11.0412 32.3156 11.0722C36.3571 11.3836 40.2422 12.9259 43.5421 15.5287C43.7785 16.1567 43.9712 16.8039 44.1183 17.4645C40.1328 14.2737 34.7549 12.8591 29.7131 12.8591C24.7097 12.8591 19.3125 14.2311 15.3079 17.4645C15.4868 16.6934 15.7212 15.9393 16.009 15.2097C19.3746 12.6942 23.288 11.225 27.341 10.9552C27.5021 10.9601 27.6623 10.9264 27.8107 10.8567C27.959 10.7869 28.0921 10.6826 28.2008 10.5508C28.3096 10.4191 28.3914 10.2629 28.4409 10.093C28.4903 9.92314 28.5062 9.74344 28.4874 9.56615C28.4686 9.38886 28.4156 9.21812 28.332 9.06553C28.2484 8.91293 28.1361 8.78205 28.0027 8.68176C27.8694 8.58148 27.7181 8.51413 27.5592 8.48431C27.4003 8.45448 27.2375 8.46287 27.0817 8.5089C24.2455 8.73712 21.4589 9.45486 18.8228 10.6361C21.2174 8.06685 24.4199 6.62901 27.754 6.62631ZM41.2948 33.3017V27.1115C42.0028 27.1773 42.6653 27.5249 43.1597 28.09C43.6541 28.6552 43.9468 29.3995 43.9838 30.1853C43.9539 30.9779 43.6645 31.7313 43.1696 32.3048C42.6748 32.8783 42.0084 33.2326 41.2948 33.3017ZM19.6102 24.6333C18.6294 24.5041 17.6352 24.6656 16.7292 25.1013V23.8356C20.0712 21.2616 24.7577 20.1129 28.8296 19.9746C28.7077 20.1438 28.6194 20.3395 28.5703 20.549C28.3191 21.7152 27.7196 22.7532 26.8689 23.4946C26.0182 24.2359 24.9663 24.6372 23.8838 24.6333H19.6102ZM31.1344 20.549C31.0895 20.3378 31.0007 20.1411 30.8751 19.9746C34.995 20.1342 39.6719 21.3254 42.9658 23.9313V25.0587C42.0344 24.6444 41.0235 24.498 40.0272 24.6333H35.8113C34.7288 24.6372 33.6769 24.2359 32.8262 23.4946C31.9755 22.7532 31.3759 21.7152 31.1248 20.549H31.1344ZM29.6747 15.3586C35.6576 15.3586 43.6957 17.9006 46.2886 23.8037C42.4473 19.2408 35.4944 17.422 29.8187 17.422C23.903 17.422 16.4603 19.3897 12.8206 24.4418C14.7413 18.8579 22.1744 15.3586 29.6747 15.3586ZM33.9482 59.7112L31.1728 56.6267L37.0309 50.1387L41.0355 51.8618L33.9482 59.7112ZM22.8274 50.1387L28.6855 56.6267L25.9293 59.7112L18.8324 51.8511L22.8274 50.1387ZM24.8345 48.8411C25.1016 48.4366 25.2462 47.9489 25.2475 47.4478V45.7354C26.7239 46.4431 28.3156 46.8083 29.9244 46.8083C31.5331 46.8083 33.1248 46.4431 34.6012 45.7354V47.5435C34.6038 48.0444 34.7483 48.5317 35.0142 48.9368L29.934 54.5633L24.8345 48.8411ZM44.5408 34.4398V34.3121C45.494 33.4041 46.0961 32.1255 46.223 30.7402C46.3498 29.3548 45.9918 27.9684 45.2227 26.8669V26.3351C46.9033 28.8665 46.8072 31.802 44.5408 34.4398ZM29.6747 2.48885C29.8187 2.48885 30.2413 2.97812 30.635 4.12682H28.7143C29.1081 2.97812 29.5306 2.52076 29.6747 2.48885ZM14.5108 26.133V26.8562C13.7417 27.9577 13.3836 29.3442 13.5105 30.7295C13.6374 32.1149 14.2395 33.3935 15.1927 34.3015C15.1927 34.3015 15.1927 34.4823 15.1927 34.5568C12.8782 31.9828 12.5709 28.8984 14.5108 26.133ZM11.8411 45.9162C11.7354 43.7889 12.4461 42.0765 13.1759 41.6617C14.0877 41.177 14.9062 40.5016 15.5864 39.6728C16.4487 38.4876 17.0326 37.0844 17.2862 35.5885C17.6844 35.7112 18.0933 35.786 18.5059 35.8118C18.6911 37.4947 19.1854 39.1178 19.9584 40.5812C20.7313 42.0445 21.7665 43.3172 23.0003 44.3207V47.4265L14.7317 50.9683C13.8774 50.5015 13.1557 49.7831 12.6457 48.8919C12.1358 48.0007 11.8574 46.9711 11.8411 45.9162ZM16.5275 52.8403L24.5176 61.6895C24.7004 61.8922 24.9175 62.0529 25.1565 62.1625C25.3954 62.2722 25.6515 62.3286 25.9101 62.3286C26.1687 62.3286 26.4248 62.2722 26.6638 62.1625C26.9027 62.0529 27.1198 61.8922 27.3026 61.6895L28.8104 60.0197V82.5364H13.3584V69.773C13.3585 68.0302 12.7653 66.3515 11.697 65.0718L6.23264 58.4987C7.05505 57.4328 8.07326 56.5735 9.21931 55.9779L16.5275 52.8403Z" fill="black"/>
</svg>
