<svg width="111" height="57" viewBox="0 0 111 57" fill="none" xmlns="http://www.w3.org/2000/svg">
<path d="M54.6455 9.72949V9.70508C54.7106 9.42839 54.792 9.00521 54.8896 8.43555C55.0036 7.86589 55.1826 7.4834 55.4268 7.28809C55.6872 7.09277 56.2324 6.99512 57.0625 6.99512C57.5345 7.02767 57.7786 7.26367 57.7949 7.70312C57.7949 7.88216 57.7868 8.02865 57.7705 8.14258L57.4043 9.65625C59.5365 9.60742 62.3359 9.56673 65.8027 9.53418C66.3398 9.53418 66.7467 9.88411 67.0234 10.584C67.1048 10.7956 67.1455 10.9827 67.1455 11.1455C67.1292 11.4873 66.4782 11.6582 65.1924 11.6582C62.3278 11.707 59.5365 11.821 56.8184 12C53.5632 25.1999 51.6344 32.7275 51.0322 34.583C50.4463 36.4385 49.901 37.8219 49.3965 38.7334C48.8919 39.6611 48.1758 40.5238 47.248 41.3213C46.3366 42.1188 45.596 42.5257 45.0264 42.542C44.8148 42.5094 44.709 42.3955 44.709 42.2002C44.709 42.0049 44.8962 41.6387 45.2705 41.1016C46.9307 38.4974 48.4606 34.5016 49.8604 29.1143L54.0352 12.1953C51.1055 12.4232 48.0537 12.5371 44.8799 12.5371C41.7061 12.5371 39.7122 12.472 38.8984 12.3418C38.0846 12.2116 37.5394 11.9186 37.2627 11.4629C37.1813 11.3327 37.1406 11.2106 37.1406 11.0967C37.1406 10.8525 37.3848 10.7142 37.873 10.6816C37.8893 10.6816 37.9056 10.6816 37.9219 10.6816L49.0059 9.99805C50.8776 9.88411 52.7575 9.7946 54.6455 9.72949ZM67.6582 21.0576C65.054 21.4971 62.7835 23.2061 60.8467 26.1846C58.9587 29.0817 57.9658 31.9463 57.8682 34.7783C61.5954 29.863 64.8587 25.2894 67.6582 21.0576ZM66.5352 18.9824L67.9756 19.1777C68.2035 19.1777 68.4395 19.0475 68.6836 18.7871C68.944 18.5267 69.2695 18.3965 69.6602 18.3965C70.0671 18.3965 70.3844 18.5023 70.6123 18.7139C70.8564 18.9255 70.9785 19.1126 70.9785 19.2754C70.9785 19.4219 70.8971 19.6742 70.7344 20.0322C70.5716 20.3903 70.474 20.6263 70.4414 20.7402C68.2767 27.5273 67.1943 31.8568 67.1943 33.7285C67.2106 34.3796 67.3571 34.7132 67.6338 34.7295C68.6266 34.7295 70.181 33.4274 72.2969 30.8232C73.7129 29.0817 74.6243 27.804 75.0312 26.9902C75.4544 26.1764 75.7881 25.7451 76.0322 25.6963C76.0811 25.6963 76.1217 25.6882 76.1543 25.6719C76.4473 25.7044 76.6019 25.8753 76.6182 26.1846C76.6182 26.7705 75.9427 28.0889 74.5918 30.1396C71.7109 34.5342 69.2207 36.7314 67.1211 36.7314C65.6074 36.7314 64.8506 35.6735 64.8506 33.5576C64.8506 32.5485 65.054 31.2952 65.4609 29.7979C65.8678 28.2842 66.112 27.3402 66.1934 26.9658C65.819 27.4541 64.5658 29.2282 62.4336 32.2881C60.3014 35.348 58.7715 37.1546 57.8438 37.708C57.5508 37.8708 57.2985 37.9603 57.0869 37.9766C56.1592 37.9766 55.4837 37.6104 55.0605 36.8779C54.8652 36.5199 54.7676 36.0072 54.7676 35.3398C54.7513 34.6562 55.2477 33.0938 56.2568 30.6523C57.8844 26.7135 59.7318 23.6781 61.7988 21.5459C63.4264 19.8857 65.0052 19.0312 66.5352 18.9824ZM82.9414 19.9346C82.9414 22.2946 82.2904 23.5072 80.9883 23.5723C80.6628 23.5723 80.3535 23.4909 80.0605 23.3281C80.1908 26.1927 80.2559 28.984 80.2559 31.7021C80.2559 34.4202 79.7432 36.349 78.7178 37.4883C78.1318 38.1393 77.375 38.4648 76.4473 38.4648C75.5358 38.4811 74.8441 38.1637 74.3721 37.5127C73.9001 36.8779 73.6641 36.2513 73.6641 35.6328C73.6966 34.8678 74.1849 34.4772 75.1289 34.4609C75.7311 34.4609 75.9915 34.876 75.9102 35.7061C75.8288 36.5361 76.0241 36.9512 76.4961 36.9512C77.375 36.9512 77.9121 35.8363 78.1074 33.6064C78.2051 32.5811 78.2458 31.1569 78.2295 29.334C78.2295 27.5111 78.083 26.5915 77.79 26.5752C77.6598 26.5752 77.4808 26.7949 77.2529 27.2344C77.0251 27.6576 76.4717 28.5365 75.5928 29.8711C74.7301 31.2057 73.9814 32.1986 73.3467 32.8496C72.7119 33.5007 72.2969 33.8587 72.1016 33.9238C71.6458 34.0866 71.3854 33.9401 71.3203 33.4844C71.3366 32.9961 71.5889 32.4264 72.0771 31.7754C73.835 29.4479 75.5277 26.7624 77.1553 23.7188C77.5296 23.0189 77.7168 22.612 77.7168 22.498V18.9824C77.7168 18.3151 78.0423 17.8024 78.6934 17.4443C78.9701 17.2979 79.2305 17.2246 79.4746 17.2246C80.4837 17.2409 81.4196 17.542 82.2822 18.1279C82.6891 18.4209 82.9007 18.7464 82.917 19.1045C82.9333 19.4626 82.9414 19.7393 82.9414 19.9346ZM79.8652 21.5703C80.4186 21.4727 80.736 21.2855 80.8174 21.0088C80.915 20.7158 80.9639 20.431 80.9639 20.1543C80.9639 19.8613 80.9476 19.6416 80.915 19.4951C80.4268 19.4951 80.0931 19.8369 79.9141 20.5205C79.849 20.7484 79.8164 20.96 79.8164 21.1553C79.8164 21.3506 79.8327 21.4889 79.8652 21.5703ZM91.5596 18.1279L100.324 17.9326C100.503 17.9326 100.699 18.0954 100.91 18.4209C101.122 18.7301 101.236 19.1533 101.252 19.6904C101.236 20.0485 100.772 20.2357 99.8604 20.252C97.1585 20.3171 93.887 20.6426 90.0459 21.2285C89.7692 22.026 89.3216 23.1735 88.7031 24.6709C85.985 31.2464 84.626 35.8607 84.626 38.5137C84.626 39.832 84.8783 41.1016 85.3828 42.3223C86.2617 44.373 87.5719 45.3984 89.3135 45.3984C90.6644 45.3984 91.7956 45.0485 92.707 44.3486C93.6348 43.665 94.7253 42.5339 95.9785 40.9551C96.3691 40.4505 96.776 40.2715 97.1992 40.418C97.6061 40.597 97.8096 40.9469 97.8096 41.4678C97.8096 42.9652 96.9469 44.2103 95.2217 45.2031C93.4964 46.2122 91.641 46.7168 89.6553 46.7168C87.6859 46.7168 85.9769 45.9925 84.5283 44.5439C83.096 43.0954 82.3799 41.1667 82.3799 38.7578C82.3799 37.1465 82.5833 35.4212 82.9902 33.582C83.3971 31.7428 84.1377 29.4561 85.2119 26.7217C86.2861 23.971 86.986 22.14 87.3115 21.2285C83.9424 21.2285 82.0625 21.1878 81.6719 21.1064C80.4674 20.846 79.8571 20.3333 79.8408 19.5684C79.8571 19.3242 80.0443 19.1696 80.4023 19.1045L88.3369 18.4453L93.5615 9.65625C94.1637 8.64714 94.709 8.14258 95.1973 8.14258C95.3926 8.14258 95.6204 8.17513 95.8809 8.24023C96.8411 8.45182 97.3213 8.80176 97.3213 9.29004C97.3213 9.76204 96.833 10.4945 95.8564 11.4873C94.8799 12.4801 94.2777 13.1149 94.0498 13.3916C93.2848 14.3356 92.4548 15.9144 91.5596 18.1279ZM108.308 17.0293C109.219 17.0293 109.699 17.2897 109.748 17.8105C109.748 17.9733 109.439 19.2103 108.82 21.5215C108.82 21.5215 108.438 22.8968 107.673 25.6475C107.429 26.5752 107.111 28.1133 106.721 30.2617C106.346 32.3939 105.956 34.347 105.549 36.1211C103.921 43.1849 102.204 48.141 100.397 50.9893C99.8604 51.8356 99.193 52.6494 98.3955 53.4307C96.6214 55.1885 94.9775 56.0674 93.4639 56.0674C92.7477 56.0674 92.3896 55.8965 92.3896 55.5547C92.4059 55.4245 92.6338 55.3024 93.0732 55.1885C93.5127 55.0908 93.9928 54.8955 94.5137 54.6025C95.9785 53.7236 97.0934 52.5192 97.8584 50.9893C100.918 45.7646 103.132 38.2126 104.499 28.333C104.027 29.7816 103.059 31.6777 101.594 34.0215C100.145 36.349 98.8024 37.5127 97.5654 37.5127C96.8981 37.5127 96.5726 36.8454 96.5889 35.5107C96.6377 31.3278 98.07 25.4277 100.886 17.8105C101 17.5013 101.105 17.2409 101.203 17.0293C101.447 16.5085 101.708 16.248 101.984 16.248C102.277 16.248 102.53 16.2725 102.741 16.3213C103.588 16.5003 104.019 16.8421 104.035 17.3467C104.035 17.4606 103.921 17.8594 103.693 18.543L102.497 22.0342C100.593 27.5355 99.4535 31.3929 99.0791 33.6064C100.186 31.9137 101.708 29.1468 103.645 25.3057C105.598 21.4645 106.656 19.3893 106.818 19.0801C107.014 18.7708 107.16 18.486 107.258 18.2256L107.453 17.7129C107.648 17.2572 107.933 17.0293 108.308 17.0293Z" fill="#FAF9F6"/>
<path d="M14.0547 24.4023C10.793 25.8477 8.19531 28.4414 6.74609 31.7031C6.52734 32.1953 6.75 32.7695 7.24219 32.9883C7.37109 33.0469 7.50391 33.0742 7.63672 33.0742C8.01172 33.0742 8.36719 32.8594 8.52734 32.4961C9.78125 29.6758 12.0234 27.4336 14.8437 26.1836C15.3359 25.9648 15.5586 25.3906 15.3398 24.8984C15.125 24.4062 14.5469 24.1836 14.0547 24.4023ZM22.4375 20.1641C22.7188 19.7031 22.8906 19.168 22.8906 18.5898C22.8906 16.918 21.5352 15.5664 19.8672 15.5664C18.1953 15.5664 16.8438 16.9219 16.8438 18.5898C16.8438 19.168 17.0156 19.707 17.2969 20.1641C8.83203 21.4102 2.31641 28.7187 2.31641 37.5234V39.6367C2.31641 40.1758 2.75391 40.6133 3.29297 40.6133H36.4453C36.9844 40.6133 37.4219 40.1758 37.4219 39.6367V37.5234C37.418 28.7187 30.8984 21.4141 22.4375 20.1641ZM35.4687 38.6602H4.26562V37.5234C4.26562 28.9219 11.2656 21.9258 19.8672 21.9258C28.4687 21.9258 35.4687 28.9219 35.4687 37.5234V38.6602ZM36.4414 42.5742H3.28906C2.75 42.5742 2.3125 43.0117 2.3125 43.5508C2.3125 44.0898 2.75 44.5273 3.28906 44.5273H36.4414C36.9805 44.5273 37.418 44.0898 37.418 43.5508C37.418 43.0117 36.9805 42.5742 36.4414 42.5742Z" fill="#FAF9F6"/>
</svg>
