<svg fill="#ae2012" viewBox="0 0 512 512" xmlns="http://www.w3.org/2000/svg"><path d="M417.2 351h-3.8V166.8c0-.1 0-.2-.1-.3 0-.1 0-.2-.1-.2 0-.1 0-.1-.1-.2 0-.1-.1-.2-.1-.3 0-.1-.1-.2-.1-.2 0-.1 0-.1-.1-.2 0-.1-.1-.2-.1-.3 0-.1-.1-.2-.1-.2l-.1-.1c-.1-.1-.1-.2-.2-.3 0-.1-.1-.1-.1-.2l-.1-.1c-.1-.1-.1-.2-.2-.3 0-.1-.1-.1-.1-.2l-.1-.1c-.1-.1-.2-.2-.2-.3-.1-.1-.1-.1-.1-.2C355.3 107 297.6 80.7 240 84.9c-44.4 3.3-80.1 24.6-102.1 41.9-23.8 18.7-37.1 36.4-37.7 37.2 0 .1-.1.1-.1.2-.1.1-.1.2-.2.3l-.1.1-.1.1c-.1.1-.1.2-.2.3 0 .1-.1.1-.1.2 0 0 0 .1-.1.1 0 .1-.1.2-.1.3 0 .1-.1.2-.1.2v.1c0 .1-.1.2-.1.3 0 .1-.1.2-.1.4 0 .1 0 .2-.1.3 0 .1 0 .3-.1.4V351h-3.8c-4.1 0-7.5 3.4-7.5 7.5v33.6c0 4.1 3.4 7.5 7.5 7.5h85.7V420c0 4.1 3.4 7.5 7.5 7.5h136c4.1 0 7.5-3.4 7.5-7.5v-20.4h85.7c4.1 0 7.5-3.4 7.5-7.5v-33.6c-.1-4.1-3.4-7.5-7.6-7.5zm-29.5-23.6l10.7-11.7v23.4l-10.7-11.7zm-20.3-128l-10.7 11.7v-23.5l10.7 11.8zm31 75.8l-10.7-11.7 10.7-11.7v23.4zm-1.8-43.8l-19 20.9-19-20.9 19-20.9 19 20.9zm-8.9-32l10.7-11.7v23.5l-10.7-11.8zm-30.9 52.3l10.7 11.7-10.7 11.7v-23.4zm0 64l10.7 11.7-10.7 11.7v-23.4zm1.8-20.3l19-20.9 19 20.9-19 20.9-19-20.9zm19-107.1l-11.4-12.5H389l-11.4 12.5zm-35.8 2.1H170.2v-14.6h171.5v14.6zm-217.5 9l-10.7 11.7v-23.5l10.7 11.8zm30.9 75.8l-10.7-11.7 10.7-11.7v23.4zm0-64l-10.7-11.7 10.7-11.7v23.4zm-1.8 20.2l-19 20.9-19-20.9 19-20.9 19 20.9zm-29.1 32l-10.7 11.7v-23.5l10.7 11.8zm10.1 11.2l19 20.9-19 20.9-19-20.9 19-20.9zm20.8 41.1v23.4l-10.7-11.7 10.7-11.7zm-20.8-127.4L123 175.9h22.7l-11.3 12.4zm-10.1 139.1l-10.7 11.7v-23.4l10.7 11.7zm10.1 11.2l11.4 12.5H123l11.4-12.5zm35.8-133.2h29.3v7.9h-3.8c-4.1 0-7.5 3.4-7.5 7.5s3.4 7.5 7.5 7.5h22.7c4.1 0 7.5-3.4 7.5-7.5s-3.4-7.5-7.5-7.5h-3.8v-7.9h33.9v7.9h-3.8c-4.1 0-7.5 3.4-7.5 7.5s3.4 7.5 7.5 7.5h22.7c4.1 0 7.5-3.4 7.5-7.5s-3.4-7.5-7.5-7.5h-3.8v-7.9h33.9v7.9h-3.8c-4.1 0-7.5 3.4-7.5 7.5s3.4 7.5 7.5 7.5h22.7c4.1 0 7.5-3.4 7.5-7.5s-3.4-7.5-7.5-7.5h-3.8v-7.9h29.3V351H170.2V205.4zm207.4 133.2L389 351h-22.7l11.3-12.4zM241.1 99.8c48.5-3.5 97.6 17 146.1 61.1H122.5c18.7-19.7 61.3-57 118.6-61.1zm75.4 312.8h-121V391h121v21.6zm93.2-28h-78.2v-1.2c0-4.1-3.4-7.5-7.5-7.5H188c-4.1 0-7.5 3.4-7.5 7.5v1.2h-78.2V366h307.5v18.6z"/></svg>