<svg fill="#ae2012" viewBox="0 0 512 512" xmlns="http://www.w3.org/2000/svg"><path d="M322.2 171.3h-12v-24.7c0-4.1-3.4-7.5-7.5-7.5h-13.5v-1.5c0-15.7-11-28.9-25.7-32.3V88.9c0-4.1-3.4-7.5-7.5-7.5s-7.5 3.4-7.5 7.5v16.4c-14.7 3.4-25.7 16.6-25.7 32.3v1.5h-13.5c-4.1 0-7.5 3.4-7.5 7.5v24.7h-12c-20.3 0-36.7 16.5-36.7 36.7v153.6c0 20.3 16.5 36.7 36.7 36.7h12V423c0 4.1 3.4 7.5 7.5 7.5h93.4c4.1 0 7.5-3.4 7.5-7.5v-24.7h12c20.3 0 36.7-16.5 36.7-36.7V208.1c.1-20.3-16.4-36.8-36.7-36.8zM168 229.8h29.5v110.1H168V229.8zm44.5 0h36v110.1h-36V229.8zm51 0h36v110.1h-36V229.8zm0-15V195l23.2 19.8h-23.2zm-15 0h-23.2l23.2-19.8v19.8zm0 140.1v19.8l-23.3-19.8h23.3zm15 0h23.3l-23.3 19.8v-19.8zm51-15V229.8H344v110.1h-29.5zM344 208.1v6.8h-34.1l-33.5-28.5h45.8c12-.1 21.8 9.7 21.8 21.7zm-106.2-70.5c0-10 8.2-18.2 18.2-18.2s18.2 8.2 18.2 18.2v1.5h-36.4v-1.5zm-21 16.5h78.4v17.2h-78.4v-17.2zm-27 32.2h45.8l-33.5 28.5H168V208c0-11.9 9.8-21.7 21.8-21.7zM168 361.7v-6.8h34l33.6 28.5h-45.8c-12 0-21.8-9.7-21.8-21.7zm127.2 53.9h-78.4v-17.2h78.4v17.2zm27-32.2h-45.8l33.6-28.5h34v6.8c0 12-9.8 21.7-21.8 21.7z"/></svg>