<svg width="50" height="50" viewBox="0 0 50 50" fill="none" xmlns="http://www.w3.org/2000/svg">
<path d="M43.0502 25.2488C42.0781 22.6503 39.1553 14.8544 39.1553 14.8544C38.5134 13.1436 36.6074 12.2756 34.896 12.9173L32.121 13.9571L27.7123 14.7458L23.1348 10.3526C22.7687 9.99825 22.2825 9.86945 21.8123 9.91975L17.2671 0.604668C17.0694 0.19375 16.5751 0.0218898 16.1586 0.222869C15.7469 0.423848 15.5752 0.920594 15.7762 1.33222L20.457 10.9244C20.2078 11.5355 20.331 12.2617 20.8367 12.7464L21.7927 13.663L27.8613 26.1021L26.3894 30.771L24.3019 29.3422C23.5725 28.8431 23.0766 28.0708 22.9273 27.2004L21.3162 17.8528C21.2565 17.502 21.1381 17.1641 20.9693 16.852L17.838 11.0657L15.0597 0.965392C14.9023 0.395646 14.384 0 13.792 0H8.01568C7.29097 0 6.70239 0.58848 6.70239 1.3138V48.4788C6.70239 49.2042 7.29097 49.7924 8.01558 49.7924H35.5211C35.9914 49.7924 36.4291 49.5396 36.6622 49.1295C36.8957 48.7202 36.8924 48.2161 36.6524 47.8102L31.9326 39.821C31.8288 39.6459 31.7429 39.4612 31.6734 39.2708L29.8338 34.1829C30.3606 33.8823 30.7821 33.3967 30.9798 32.7734L31.0314 32.605L39.2914 49.5338C39.4338 49.8289 39.7287 49.9998 40.0367 49.9998C40.1584 49.9998 40.2832 49.9731 40.4 49.9156C40.8116 49.7146 40.9834 49.2179 40.7824 48.8062L36.6333 40.3023C36.6654 40.3039 36.6963 40.3186 36.7305 40.3186C36.9185 40.3186 37.1129 40.2968 37.3041 40.2513C38.643 39.9354 39.4713 38.5941 39.1552 37.2561L37.7581 31.344L42.2186 28.6486C43.0941 28.1185 43.6427 26.833 43.0502 25.2488ZM25.2643 16.9963L26.0231 17.7257C26.3342 18.0255 26.7492 18.1884 27.1739 18.1884C27.2712 18.1884 27.3684 18.1794 27.4656 18.1623L32.9378 17.1825L35.0268 22.7576L31.4888 22.0274C30.2374 21.7697 28.9958 22.4999 28.6118 23.7179L28.5841 23.8029L25.2643 16.9963ZM31.7576 30.305L32.6848 27.3584L34.2067 27.6728L33.6314 28.0212C32.7043 28.5804 32.2471 29.6721 32.4952 30.7239L32.9959 32.8482L31.7576 30.305Z" fill="black"/>
<path d="M32.8482 12.4141C34.9052 12.4141 36.5731 10.7464 36.5731 8.68862C36.5731 6.63169 34.9052 4.96399 32.8482 4.96399C30.7917 4.96399 29.1221 6.63169 29.1221 8.68862C29.1222 10.7464 30.7917 12.4141 32.8482 12.4141Z" fill="black"/>
</svg>
