<svg width="22" height="20" viewBox="0 0 22 20" fill="none" xmlns="http://www.w3.org/2000/svg">
<path d="M1 1H2.386C2.896 1 3.341 1.343 3.473 1.835L3.856 3.272M3.856 3.272C9.42664 3.11589 14.9919 3.73515 20.392 5.112C19.568 7.566 18.589 9.95 17.468 12.25H6.25M3.856 3.272L6.25 12.25M6.25 12.25C5.45435 12.25 4.69129 12.5661 4.12868 13.1287C3.56607 13.6913 3.25 14.4544 3.25 15.25H19M4.75 18.25C4.75 18.4489 4.67098 18.6397 4.53033 18.7803C4.38968 18.921 4.19891 19 4 19C3.80109 19 3.61032 18.921 3.46967 18.7803C3.32902 18.6397 3.25 18.4489 3.25 18.25C3.25 18.0511 3.32902 17.8603 3.46967 17.7197C3.61032 17.579 3.80109 17.5 4 17.5C4.19891 17.5 4.38968 17.579 4.53033 17.7197C4.67098 17.8603 4.75 18.0511 4.75 18.25ZM17.5 18.25C17.5 18.4489 17.421 18.6397 17.2803 18.7803C17.1397 18.921 16.9489 19 16.75 19C16.5511 19 16.3603 18.921 16.2197 18.7803C16.079 18.6397 16 18.4489 16 18.25C16 18.0511 16.079 17.8603 16.2197 17.7197C16.3603 17.579 16.5511 17.5 16.75 17.5C16.9489 17.5 17.1397 17.579 17.2803 17.7197C17.421 17.8603 17.5 18.0511 17.5 18.25Z" stroke="#FAFAFA" stroke-width="1.5" stroke-linecap="round" stroke-linejoin="round"/>
</svg>
