<svg fill="#ae2012" viewBox="0 0 512 512" xmlns="http://www.w3.org/2000/svg"><path d="M116.3 214.1c-.2.3-.4.6-.5.9 0 .1-.1.1-.1.2-.1.3-.2.6-.3 1 0 .1-.1.2-.1.3-.1.3-.1.6-.2 1v1.6c0 .3.1.6.1.9 0 .1 0 .2.1.3l.3.9c0 .1.1.2.1.3.1.3.3.6.5.9 0 0 0 .1.1.1l103.8 152.9-49.2 46.3c-2.2 2.1-3 5.4-1.8 8.2 1.1 2.9 3.9 4.7 7 4.7h159.8c4.1 0 7.5-3.4 7.5-7.5 0-2.3-1.1-4.4-2.7-5.8l-48.9-46 103.8-152.9v-.1c.2-.3.3-.6.5-.9 0-.1.1-.2.1-.3.1-.3.2-.6.3-1 0-.1 0-.2.1-.3.1-.3.1-.7.2-1v-1.4c0-.3-.1-.7-.2-1 0-.1 0-.2-.1-.3-.1-.3-.2-.7-.4-1 0-.1-.1-.1-.1-.2-.2-.3-.3-.7-.6-1l-.1-.1c-.2-.3-.5-.7-.8-1L261.3 79.6l-.5-.5-.1-.1c-.1-.1-.3-.2-.4-.3l-.1-.1c-.2-.1-.3-.2-.5-.3h-.1l-.6-.3h-.1c-.2-.1-.4-.2-.6-.2h-.1c-.2-.1-.4-.1-.6-.2h-.2c-.2 0-.4-.1-.5-.1h-1.4c-.2 0-.4.1-.6.1h-.2c-.2 0-.4.1-.6.2h-.1c-.2.1-.4.1-.6.2h-.1l-.6.3h-.1c-.2.1-.3.2-.5.3l-.1.1c-.1.1-.3.2-.4.3-.1 0-.1.1-.2.1-.2.1-.3.3-.5.4h-.1L117.6 212.7l-.1.1-.1.1-.1.1s0 .1-.1.1c-.3.3-.6.6-.9 1 .1 0 .1 0 0 0zM263.5 103l84.6 84.6c-20-8.5-40.3-14.2-60.9-17.1-7.9-1.1-15.8-1.8-23.7-2.1V103zm-15 65.3c-16.4.5-32.7 2.7-49 6.8-12.8 3.1-24.3 7.1-34.3 11.2l83.3-83.3v65.3zm-115.6 51.8c10.6-7.1 35.6-21.9 70.2-30.5 15.2-3.7 30.3-5.9 45.4-6.4v165.5L231.3 365l-98.4-144.9zM195 419.6l61-57.4 61 57.4H195zm68.5-70.9V183.3c39.2 1.4 77.8 13.8 115.4 37.1L280.7 365l-17.2-16.3z"/></svg>