<svg fill="#ae2012" viewBox="0 0 512 512" xmlns="http://www.w3.org/2000/svg"><path d="M184.1 393.7c-.4.9-.6 1.9-.6 3v16.4c0 11.2 9.1 20.4 20.4 20.4h91.2c11.2 0 20.4-9.1 20.4-20.4v-16.4c0-1.1-.2-2.1-.6-3 27.8-20.2 45.9-53 45.9-89.9 0-.5-.1-1-.2-1.5 3.7-6.3 5.7-13.4 5.7-20.6 0-23.4-20.6-42.5-45.9-42.5-13.4-18.7-37.6-31.2-65-31.2-33.5 0-62.9 18.5-72.9 45.5-.5.3-1.1.5-1.6.8-1.1.5-2.1 1.1-3.1 1.6-15.9 9.1-25.8 23.9-27.2 40.3h-4.8c-4.1 0-7.5 3.4-7.5 7.5 0 36.9 18.1 69.7 45.8 90zm116.4 10.5v8.9c0 3-2.4 5.4-5.4 5.4h-91.2c-3 0-5.4-2.4-5.4-5.4v-8.9h3.2c14.5 6.9 30.7 10.8 47.8 10.8s33.3-3.9 47.8-10.8h3.2zm26.4-108c2.1-4.8 3.6-9.9 4.3-15 1.6 2.8 2.6 6 2.6 9.2 0 2-.3 3.9-1 5.8h-5.9zm24.4-14.6c0 3.9-.9 7.7-2.7 11.2.1-.8.1-1.6.1-2.4 0-12.5-7.2-23.9-18.5-30.2-.4-1.7-.9-3.4-1.5-5.1 13.1 3.3 22.6 13.9 22.6 26.5zm-34.5-8.4c0 8-2.4 15.9-6.8 23h-.1c1.4-4.6 2.1-9.4 2.1-14.2 0-31.6-30-57.2-66.9-57.2-2.4 0-4.8.1-7.2.3 5.6-1.3 11.5-2.1 17.5-2.1 33.8 0 61.4 22.5 61.4 50.2zm-45.6 23c-1.3-15.6-10.4-29.3-23.8-38.2 17.3 4.4 29.8 17.4 29.8 32.8 0 1.8-.2 3.6-.5 5.4h-5.5zm20.6 0c.2-1.8.3-3.6.3-5.4 0-27.2-25.8-49.4-57.5-49.4-1.7 0-3.4.1-5 .2 4.9-1.3 10.1-1.9 15.4-1.9 28.6 0 51.9 18.9 51.9 42.2 0 4.9-1 9.7-3 14.2h-2.1zM185.2 269c.7-.4 1.5-.8 2.3-1.2 3.2-1.6 6.7-2.9 10.3-3.8 4.2-1.1 8.6-1.6 13.1-1.6 23.5 0 42.8 14.9 45.2 33.9h-7.9c-7.7-15.7-21.9-25.6-37.3-25.6s-29.6 9.9-37.3 25.6h-7.9c1.4-11 8.5-21 19.5-27.3zm45.4 27.2h-39.4c5.2-6.6 12.3-10.6 19.7-10.6s14.5 4 19.7 10.6zm-72.6 15h187.2c-3.8 49.6-45.4 88.7-95.9 88.7-50.5 0-92.1-39.2-95.9-88.7h4.6zm36.1-140c.1.2.3.4.4.5 0 0 0 .1.1.1l.1.1.1.1.3.3c1.3 1.4 3 2.5 4.8 3.2v15.4c0 10.4 8.5 18.8 18.8 18.8 10.4 0 18.8-8.5 18.8-18.8v-4c1.2.3 2.5.4 3.8.4 4.2 0 8.1-1.4 11.3-3.8 3.1 2.4 7 3.8 11.3 3.8 10.4 0 18.8-8.5 18.8-18.8v-.6l84.3-9.3c2.1-.2 4-1.4 5.3-3.1s1.7-3.9 1.2-6l-5-22.8c-.9-4-4.8-6.5-8.8-5.7l-43 8.6 37.7-16.8c2.1-.9 3.6-2.7 4.2-4.9.6-2.2.2-4.5-1.1-6.3l-14.2-19.9c-2.2-3.1-6.4-4.1-9.8-2.2l-55.6 31.2c-3.5-3.8-8.4-6.3-14-6.3-4.2 0-8.1 1.4-11.3 3.8-3.1-2.4-7-3.8-11.3-3.8-10.4 0-18.8 8.5-18.8 18.8v4c-1.2-.3-2.5-.4-3.8-.4-10.4 0-18.8 8.5-18.8 18.8v7.3c-2.5 1-4.7 2.7-6.2 4.9-1.7 2.6-2.3 5.8-1.6 8.8.3 1.7 1 3.2 2 4.6zm163-26.6l-74.4 8.2v-1.2l72.8-14.5 1.6 7.5zm-22.2-48.7l5 6.9-57.2 25.4v-3l52.2-29.3zm-71 23.5c2.1 0 3.8 1.7 3.8 3.8v45.1c0 2.1-1.7 3.8-3.8 3.8-1.8 0-3.3-1.3-3.7-3v-46.9c.3-1.5 1.9-2.8 3.7-2.8zm-26.4 3.9c0-2.1 1.7-3.8 3.8-3.8 1.8 0 3.3 1.3 3.7 3v25.6c0 .1-.1.2-.1.3 0 .1-.1.3-.1.4 0 .1 0 .2-.1.3v1.9c0 .2 0 .3.1.5v.3c0 .1.1.2.1.4 0 .1 0 .2.1.3v17.1c-.4 1.7-1.9 3-3.7 3-2.1 0-3.8-1.7-3.8-3.8v-45.5zm-18.8 18.6c2.1 0 3.8 1.7 3.8 3.8v45.1c0 2.1-1.7 3.8-3.8 3.8-2.1 0-3.8-1.7-3.8-3.8v-45.2c-.1-2 1.7-3.7 3.8-3.7z"/></svg>