<svg width="24" height="24" viewBox="0 0 24 24" fill="none" xmlns="http://www.w3.org/2000/svg">
<path fill-rule="evenodd" clip-rule="evenodd" d="M4.804 21.644C5.1987 21.715 5.59897 21.7505 6 21.75C7.26747 21.7517 8.50959 21.395 9.583 20.721C10.357 20.903 11.167 21 12 21C17.322 21 21.75 17.03 21.75 12C21.75 6.97 17.322 3 12 3C6.678 3 2.25 6.97 2.25 12C2.25 14.409 3.275 16.587 4.924 18.192C5.156 18.418 5.201 18.62 5.178 18.735C5.05442 19.3571 4.77426 19.9373 4.364 20.421C4.27883 20.5215 4.22165 20.6428 4.19823 20.7724C4.17481 20.9021 4.18596 21.0357 4.23057 21.1597C4.27518 21.2836 4.35167 21.3937 4.45233 21.4787C4.553 21.5638 4.67429 21.6208 4.804 21.644ZM8.25 10.875C7.95163 10.875 7.66548 10.9935 7.4545 11.2045C7.24353 11.4155 7.125 11.7016 7.125 12C7.125 12.2984 7.24353 12.5845 7.4545 12.7955C7.66548 13.0065 7.95163 13.125 8.25 13.125C8.54837 13.125 8.83452 13.0065 9.0455 12.7955C9.25647 12.5845 9.375 12.2984 9.375 12C9.375 11.7016 9.25647 11.4155 9.0455 11.2045C8.83452 10.9935 8.54837 10.875 8.25 10.875ZM10.875 12C10.875 11.7016 10.9935 11.4155 11.2045 11.2045C11.4155 10.9935 11.7016 10.875 12 10.875C12.2984 10.875 12.5845 10.9935 12.7955 11.2045C13.0065 11.4155 13.125 11.7016 13.125 12C13.125 12.2984 13.0065 12.5845 12.7955 12.7955C12.5845 13.0065 12.2984 13.125 12 13.125C11.7016 13.125 11.4155 13.0065 11.2045 12.7955C10.9935 12.5845 10.875 12.2984 10.875 12ZM15.75 10.875C15.4516 10.875 15.1655 10.9935 14.9545 11.2045C14.7435 11.4155 14.625 11.7016 14.625 12C14.625 12.2984 14.7435 12.5845 14.9545 12.7955C15.1655 13.0065 15.4516 13.125 15.75 13.125C16.0484 13.125 16.3345 13.0065 16.5455 12.7955C16.7565 12.5845 16.875 12.2984 16.875 12C16.875 11.7016 16.7565 11.4155 16.5455 11.2045C16.3345 10.9935 16.0484 10.875 15.75 10.875Z" fill="#9CA3AF"/>
</svg>
