<svg width="66" height="42" viewBox="0 0 66 42" fill="none" xmlns="http://www.w3.org/2000/svg">
<path d="M13.9712 1.60873C11.7837 1.61748 9.75623 2.06248 8.76748 2.37123C8.76748 2.37123 17.735 3.8925 18.4812 10.0837C11.6675 0.25874 4.23499 12.1412 4.23499 12.1412C5.78499 11.735 10.2225 10.5275 13.185 11.0375C15.2125 11.3862 17.1887 13.2237 17.1037 13.2C12.2725 14.3887 4.59624 35.8912 5.89998 37.6375C7.06248 38.9725 8.22624 38.5175 9.38749 37.84C9.96249 33.2825 14.4525 13.2887 19.9462 14.9025H19.9487C20.4112 15.0612 20.8487 15.3387 20.8725 15.7625C20.9175 16.5712 20.3962 17.8912 20.5187 18.8087C20.805 20.9375 21.2212 21.6787 21.8275 22.4212C23.275 21.6075 24.6612 18.6725 24.9475 17.1512C26.245 17.72 28.33 19.035 30.0325 23.9225C30.9225 19.3425 29.6387 15.73 25.4287 14.1262C27.2525 13.3375 35.19 17.3262 36.1587 19.55C37.1012 15.5412 30.4337 10.6362 24.8837 10.8975C25.9475 10.62 27.1175 10.9437 28.23 10.125C29.7237 9.02499 31.465 8.07874 33.0875 7.06124C27.63 4.68749 22.5937 5.85998 22.2387 8.31623C21.96 2.86249 17.7287 1.59248 13.9737 1.60873H13.9712Z" fill="white"/>
<path d="M22.758 38.792C22.602 38.792 22.44 38.726 22.272 38.594C22.116 38.474 22.038 38.276 22.038 38C22.038 37.88 22.11 37.676 22.254 37.388C22.41 37.1 22.614 36.764 22.866 36.38C23.118 35.984 23.388 35.57 23.676 35.138C23.964 34.694 24.246 34.268 24.522 33.86L24.558 33.806C23.49 33.854 22.482 33.914 21.534 33.986C20.598 34.058 19.83 34.172 19.23 34.328C19.05 34.364 18.816 34.43 18.528 34.526C18.252 34.61 18 34.724 17.772 34.868C17.556 35.012 17.448 35.198 17.448 35.426C17.448 35.498 17.454 35.552 17.466 35.588C17.526 35.84 17.67 36.05 17.898 36.218C18.126 36.386 18.354 36.506 18.582 36.578C18.678 36.614 18.72 36.662 18.708 36.722C18.708 36.77 18.696 36.794 18.672 36.794C18.552 36.794 18.438 36.77 18.33 36.722C18.234 36.662 18.138 36.626 18.042 36.614C17.814 36.578 17.604 36.548 17.412 36.524C17.232 36.488 17.094 36.368 16.998 36.164C16.95 36.068 16.926 35.972 16.926 35.876C16.926 35.792 16.938 35.702 16.962 35.606C16.998 35.51 17.034 35.378 17.07 35.21C17.022 35.102 16.998 34.976 16.998 34.832C16.998 34.52 17.106 34.25 17.322 34.022C17.55 33.794 17.76 33.638 17.952 33.554C18.3 33.398 18.714 33.278 19.194 33.194C19.686 33.11 20.208 33.056 20.76 33.032C21.312 32.996 21.846 32.978 22.362 32.978C22.914 32.978 23.418 32.99 23.874 33.014C24.342 33.038 24.708 33.05 24.972 33.05H25.134C25.482 32.594 25.878 32.09 26.322 31.538C26.766 30.974 27.204 30.41 27.636 29.846C28.068 29.27 28.44 28.742 28.752 28.262C28.92 28.01 29.064 27.782 29.184 27.578C29.304 27.362 29.364 27.176 29.364 27.02C29.364 26.876 29.28 26.762 29.112 26.678C28.956 26.594 28.686 26.552 28.302 26.552C27.954 26.552 27.48 26.606 26.88 26.714C26.28 26.81 25.608 26.954 24.864 27.146C24.12 27.326 23.352 27.542 22.56 27.794C21.78 28.046 21.012 28.322 20.256 28.622C19.512 28.91 18.834 29.216 18.222 29.54C17.61 29.852 17.118 30.17 16.746 30.494C16.542 30.674 16.44 30.836 16.44 30.98C16.44 31.184 16.596 31.286 16.908 31.286C16.968 31.322 16.998 31.358 16.998 31.394C16.998 31.478 16.878 31.502 16.638 31.466C16.542 31.442 16.38 31.376 16.152 31.268C15.936 31.148 15.732 31.004 15.54 30.836C15.36 30.656 15.27 30.482 15.27 30.314C15.27 30.122 15.474 29.888 15.882 29.612C16.29 29.336 16.842 29.042 17.538 28.73C18.246 28.418 19.038 28.112 19.914 27.812C20.79 27.512 21.702 27.242 22.65 27.002C23.598 26.75 24.522 26.552 25.422 26.408C26.322 26.252 27.144 26.174 27.888 26.174C28.704 26.174 29.37 26.288 29.886 26.516C30.402 26.744 30.66 27.122 30.66 27.65C30.66 27.866 30.636 28.046 30.588 28.19C30.552 28.334 30.48 28.484 30.372 28.64C30.276 28.784 30.132 28.988 29.94 29.252C29.724 29.552 29.43 29.912 29.058 30.332C28.686 30.74 28.272 31.178 27.816 31.646C27.372 32.114 26.922 32.6 26.466 33.104C27.45 33.128 28.32 33.152 29.076 33.176C29.832 33.188 30.492 33.2 31.056 33.212C31.452 32.576 31.872 31.964 32.316 31.376C32.772 30.776 33.204 30.242 33.612 29.774C34.032 29.294 34.38 28.922 34.656 28.658C34.584 28.586 34.548 28.502 34.548 28.406C34.548 28.262 34.626 28.118 34.782 27.974C34.95 27.818 35.13 27.674 35.322 27.542C35.514 27.41 35.664 27.302 35.772 27.218C35.88 27.218 36.03 27.248 36.222 27.308C36.414 27.356 36.582 27.428 36.726 27.524C36.882 27.62 36.96 27.74 36.96 27.884C36.96 27.956 36.942 28.028 36.906 28.1C36.858 28.232 36.72 28.406 36.492 28.622C36.276 28.838 36.042 29.048 35.79 29.252C35.55 29.456 35.364 29.624 35.232 29.756C34.86 30.14 34.386 30.638 33.81 31.25C33.234 31.862 32.682 32.516 32.154 33.212C32.778 33.2 33.234 33.164 33.522 33.104H33.612C33.708 33.104 33.792 33.122 33.864 33.158C33.948 33.182 33.99 33.212 33.99 33.248C33.99 33.308 33.852 33.362 33.576 33.41C33.348 33.446 33.09 33.476 32.802 33.5C32.514 33.524 32.202 33.548 31.866 33.572C31.374 34.232 30.954 34.898 30.606 35.57C30.27 36.23 30.102 36.83 30.102 37.37C30.102 37.598 30.138 37.796 30.21 37.964C30.294 38.12 30.468 38.198 30.732 38.198V38.342C30.66 38.378 30.582 38.396 30.498 38.396C30.294 38.396 30.114 38.312 29.958 38.144C29.802 37.988 29.682 37.802 29.598 37.586C29.514 37.358 29.472 37.16 29.472 36.992C29.472 36.56 29.598 36.05 29.85 35.462C30.102 34.862 30.414 34.25 30.786 33.626C30.054 33.662 29.262 33.692 28.41 33.716C27.558 33.728 26.706 33.746 25.854 33.77C25.506 34.166 25.176 34.556 24.864 34.94C24.564 35.324 24.3 35.69 24.072 36.038C24.024 36.098 23.934 36.242 23.802 36.47C23.682 36.686 23.568 36.896 23.46 37.1C23.484 37.1 23.508 37.106 23.532 37.118C23.556 37.118 23.592 37.118 23.64 37.118C23.736 37.118 23.784 37.16 23.784 37.244C23.784 37.364 23.712 37.556 23.568 37.82C23.424 38.084 23.286 38.354 23.154 38.63C23.082 38.738 22.95 38.792 22.758 38.792ZM33.6071 38.198C33.4151 38.198 33.2531 38.132 33.1211 38C33.0011 37.88 32.9111 37.736 32.8511 37.568C32.7911 37.4 32.7611 37.256 32.7611 37.136C32.7611 36.728 32.8871 36.296 33.1391 35.84C33.3911 35.384 33.7151 34.958 34.1111 34.562C34.5191 34.166 34.9451 33.842 35.3891 33.59C35.8331 33.338 36.2471 33.212 36.6311 33.212C36.9071 33.212 37.1831 33.398 37.4591 33.77C37.4831 33.806 37.5071 33.854 37.5311 33.914C37.5671 33.974 37.5851 34.034 37.5851 34.094C37.5851 34.202 37.5431 34.274 37.4591 34.31C37.4471 34.322 37.4171 34.286 37.3691 34.202C37.3331 34.106 37.2071 34.058 36.9911 34.058C36.7871 34.058 36.5171 34.154 36.1811 34.346C35.8451 34.538 35.4911 34.79 35.1191 35.102C34.7591 35.414 34.4291 35.75 34.1291 36.11C33.8411 36.47 33.6311 36.818 33.4991 37.154C33.4751 37.238 33.4511 37.322 33.4271 37.406C33.4031 37.49 33.3911 37.562 33.3911 37.622C33.3911 37.73 33.4271 37.784 33.4991 37.784C33.5711 37.784 33.6671 37.742 33.7871 37.658C34.0391 37.478 34.3031 37.256 34.5791 36.992C34.8551 36.716 35.1191 36.434 35.3711 36.146C35.6351 35.846 35.8571 35.564 36.0371 35.3C36.2171 35.036 36.3311 34.82 36.3791 34.652C36.4031 34.556 36.5411 34.508 36.7931 34.508C36.9971 34.508 37.1711 34.556 37.3151 34.652C37.4591 34.736 37.4951 34.832 37.4231 34.94C37.2071 35.264 36.9971 35.606 36.7931 35.966C36.5891 36.314 36.4391 36.668 36.3431 37.028C36.3311 37.076 36.3191 37.118 36.3071 37.154C36.3071 37.19 36.3071 37.22 36.3071 37.244C36.3071 37.364 36.3551 37.424 36.4511 37.424C36.5591 37.424 36.6791 37.37 36.8111 37.262C37.0631 37.022 37.3271 36.716 37.6031 36.344C37.8911 35.96 38.1851 35.582 38.4851 35.21C38.5931 35.09 38.6651 35.03 38.7011 35.03C38.7371 35.03 38.7551 35.06 38.7551 35.12C38.7551 35.168 38.7431 35.216 38.7191 35.264C38.6711 35.384 38.6051 35.51 38.5211 35.642C38.4371 35.762 38.3591 35.87 38.2871 35.966C38.2271 36.05 38.1251 36.2 37.9811 36.416C37.8371 36.632 37.6691 36.86 37.4771 37.1C37.2851 37.34 37.0871 37.55 36.8831 37.73C36.6791 37.898 36.4871 37.982 36.3071 37.982C36.0551 37.982 35.8511 37.904 35.6951 37.748C35.5511 37.58 35.4791 37.43 35.4791 37.298C35.4791 37.13 35.4851 37.016 35.4971 36.956C35.5211 36.836 35.5571 36.692 35.6051 36.524C35.6651 36.356 35.7191 36.194 35.7671 36.038C35.6711 36.17 35.5271 36.356 35.3351 36.596C35.1431 36.836 34.9331 37.082 34.7051 37.334C34.4891 37.574 34.2791 37.778 34.0751 37.946C33.8711 38.114 33.7151 38.198 33.6071 38.198ZM39.3046 38.252C38.8606 38.252 38.5486 38.114 38.3686 37.838C38.2006 37.562 38.1166 37.238 38.1166 36.866C38.1166 36.59 38.1526 36.32 38.2246 36.056C38.2966 35.78 38.3806 35.546 38.4766 35.354C38.4406 35.33 38.4106 35.306 38.3866 35.282C38.3626 35.246 38.3746 35.192 38.4226 35.12C38.5426 34.964 38.6866 34.766 38.8546 34.526C39.0346 34.274 39.2146 34.046 39.3946 33.842C39.5866 33.626 39.7426 33.5 39.8626 33.464C39.9106 33.452 39.9466 33.446 39.9706 33.446C40.0066 33.434 40.0426 33.428 40.0786 33.428C40.2106 33.428 40.3066 33.47 40.3666 33.554C40.4266 33.626 40.4866 33.698 40.5466 33.77C40.6066 33.842 40.7086 33.884 40.8526 33.896C40.3486 34.4 39.8986 35 39.5026 35.696C39.2986 36.056 39.1546 36.368 39.0706 36.632C38.9866 36.884 38.9446 37.094 38.9446 37.262C38.9446 37.598 39.0766 37.766 39.3406 37.766C39.5086 37.766 39.6826 37.694 39.8626 37.55C40.0066 37.442 40.1686 37.28 40.3486 37.064C40.5286 36.836 40.6906 36.62 40.8346 36.416C40.9786 36.2 41.0686 36.068 41.1046 36.02C41.3086 35.708 41.4946 35.432 41.6626 35.192C41.8426 34.94 42.0046 34.718 42.1486 34.526C42.2086 34.442 42.2626 34.37 42.3106 34.31C42.3586 34.25 42.3946 34.202 42.4186 34.166C42.5506 33.986 42.6646 33.83 42.7606 33.698C42.8686 33.566 42.9526 33.488 43.0126 33.464C43.0606 33.44 43.1026 33.422 43.1386 33.41C43.1866 33.398 43.2226 33.392 43.2466 33.392C43.3666 33.392 43.4506 33.434 43.4986 33.518C43.5586 33.602 43.6246 33.686 43.6966 33.77C43.7686 33.842 43.8706 33.884 44.0026 33.896C43.4986 34.4 43.0486 35 42.6526 35.696C42.4486 36.056 42.3046 36.368 42.2206 36.632C42.1366 36.884 42.0946 37.094 42.0946 37.262C42.0946 37.598 42.2266 37.766 42.4906 37.766C42.6586 37.766 42.8326 37.694 43.0126 37.55C43.2886 37.334 43.5646 37.01 43.8406 36.578C44.1166 36.146 44.3986 35.648 44.6866 35.084C44.9866 34.52 45.2926 33.938 45.6046 33.338C45.9286 32.738 46.2706 32.168 46.6306 31.628C46.9906 31.076 47.3746 30.602 47.7826 30.206C48.1426 29.858 48.5326 29.606 48.9526 29.45C49.3846 29.282 49.8346 29.198 50.3026 29.198C50.5306 29.198 50.7526 29.216 50.9686 29.252C51.0526 29.252 51.0946 29.282 51.0946 29.342C51.0946 29.402 51.0346 29.432 50.9146 29.432C50.4946 29.432 50.0446 29.588 49.5646 29.9C49.0966 30.212 48.6226 30.614 48.1426 31.106C47.6746 31.598 47.2306 32.12 46.8106 32.672C46.4026 33.224 46.0366 33.758 45.7126 34.274C45.4006 34.778 45.1606 35.192 44.9926 35.516C44.8006 35.888 44.5666 36.29 44.2906 36.722C44.0146 37.142 43.7206 37.502 43.4086 37.802C43.0966 38.102 42.7786 38.252 42.4546 38.252C42.1186 38.252 41.8606 38.168 41.6806 38C41.5006 37.832 41.3806 37.616 41.3206 37.352C41.2726 37.088 41.2606 36.812 41.2846 36.524C40.9726 37.004 40.6366 37.424 40.2766 37.784C39.9646 38.096 39.6406 38.252 39.3046 38.252ZM46.404 38.198C46.212 38.198 46.05 38.132 45.918 38C45.798 37.88 45.708 37.736 45.648 37.568C45.588 37.4 45.558 37.256 45.558 37.136C45.558 36.728 45.684 36.296 45.936 35.84C46.188 35.384 46.512 34.958 46.908 34.562C47.316 34.166 47.742 33.842 48.186 33.59C48.63 33.338 49.044 33.212 49.428 33.212C49.704 33.212 49.98 33.398 50.256 33.77C50.28 33.806 50.304 33.854 50.328 33.914C50.364 33.974 50.382 34.034 50.382 34.094C50.382 34.202 50.34 34.274 50.256 34.31C50.244 34.322 50.214 34.286 50.166 34.202C50.13 34.106 50.004 34.058 49.788 34.058C49.584 34.058 49.314 34.154 48.978 34.346C48.642 34.538 48.288 34.79 47.916 35.102C47.556 35.414 47.226 35.75 46.926 36.11C46.638 36.47 46.428 36.818 46.296 37.154C46.272 37.238 46.248 37.322 46.224 37.406C46.2 37.49 46.188 37.562 46.188 37.622C46.188 37.73 46.224 37.784 46.296 37.784C46.368 37.784 46.464 37.742 46.584 37.658C46.836 37.478 47.1 37.256 47.376 36.992C47.652 36.716 47.916 36.434 48.168 36.146C48.432 35.846 48.654 35.564 48.834 35.3C49.014 35.036 49.128 34.82 49.176 34.652C49.2 34.556 49.338 34.508 49.59 34.508C49.794 34.508 49.968 34.556 50.112 34.652C50.256 34.736 50.292 34.832 50.22 34.94C50.004 35.264 49.794 35.606 49.59 35.966C49.386 36.314 49.236 36.668 49.14 37.028C49.128 37.076 49.116 37.118 49.104 37.154C49.104 37.19 49.104 37.22 49.104 37.244C49.104 37.364 49.152 37.424 49.248 37.424C49.356 37.424 49.476 37.37 49.608 37.262C49.86 37.022 50.124 36.716 50.4 36.344C50.688 35.96 50.982 35.582 51.282 35.21C51.39 35.09 51.462 35.03 51.498 35.03C51.534 35.03 51.552 35.06 51.552 35.12C51.552 35.168 51.54 35.216 51.516 35.264C51.468 35.384 51.402 35.51 51.318 35.642C51.234 35.762 51.156 35.87 51.084 35.966C51.024 36.05 50.922 36.2 50.778 36.416C50.634 36.632 50.466 36.86 50.274 37.1C50.082 37.34 49.884 37.55 49.68 37.73C49.476 37.898 49.284 37.982 49.104 37.982C48.852 37.982 48.648 37.904 48.492 37.748C48.348 37.58 48.276 37.43 48.276 37.298C48.276 37.13 48.282 37.016 48.294 36.956C48.318 36.836 48.354 36.692 48.402 36.524C48.462 36.356 48.516 36.194 48.564 36.038C48.468 36.17 48.324 36.356 48.132 36.596C47.94 36.836 47.73 37.082 47.502 37.334C47.286 37.574 47.076 37.778 46.872 37.946C46.668 38.114 46.512 38.198 46.404 38.198ZM54.4235 32.978C54.1955 32.93 53.9855 32.81 53.7935 32.618C53.6135 32.426 53.5475 32.21 53.5955 31.97C53.6195 31.838 53.6675 31.754 53.7395 31.718C53.8115 31.682 53.9435 31.652 54.1355 31.628C54.3515 31.604 54.4955 31.586 54.5675 31.574C54.6515 31.562 54.7295 31.55 54.8015 31.538C54.8855 31.514 55.0355 31.484 55.2515 31.448C55.2995 31.436 55.3595 31.406 55.4315 31.358C55.5035 31.31 55.5275 31.34 55.5035 31.448C55.5035 31.496 55.4615 31.556 55.3775 31.628C55.3055 31.688 55.2395 31.73 55.1795 31.754C55.0475 31.814 54.8975 31.886 54.7295 31.97C54.5735 32.054 54.4535 32.168 54.3695 32.312C54.3335 32.384 54.3155 32.45 54.3155 32.51C54.3155 32.678 54.3755 32.774 54.4955 32.798C54.5195 32.798 54.5315 32.816 54.5315 32.852C54.5315 32.876 54.5195 32.906 54.4955 32.942C54.4715 32.978 54.4475 32.99 54.4235 32.978ZM52.1915 38.252C51.7475 38.252 51.4355 38.114 51.2555 37.838C51.0875 37.562 51.0035 37.238 51.0035 36.866C51.0035 36.302 51.1055 35.834 51.3095 35.462C51.1895 35.402 51.1595 35.33 51.2195 35.246C51.3635 35.054 51.5315 34.826 51.7235 34.562C51.9155 34.298 52.1015 34.058 52.2815 33.842C52.4735 33.626 52.6295 33.5 52.7495 33.464C52.7855 33.452 52.8335 33.446 52.8935 33.446C53.0855 33.446 53.2595 33.512 53.4155 33.644C53.5835 33.776 53.6915 33.86 53.7395 33.896C53.4515 34.184 53.1635 34.514 52.8755 34.886C52.5995 35.258 52.3655 35.654 52.1735 36.074C51.9815 36.494 51.8855 36.92 51.8855 37.352C51.8855 37.508 51.9155 37.622 51.9755 37.694C52.0355 37.754 52.1075 37.784 52.1915 37.784C52.3715 37.784 52.5575 37.7 52.7495 37.532C52.9655 37.34 53.2355 37.058 53.5595 36.686C53.8955 36.302 54.2015 35.924 54.4775 35.552C54.6455 35.312 54.7595 35.192 54.8195 35.192C54.8795 35.192 54.8795 35.27 54.8195 35.426C54.7715 35.582 54.6815 35.762 54.5495 35.966C54.3815 36.194 54.1775 36.488 53.9375 36.848C53.6975 37.196 53.4395 37.508 53.1635 37.784C53.0075 37.94 52.8395 38.054 52.6595 38.126C52.4915 38.21 52.3355 38.252 52.1915 38.252ZM57.9216 32.978C57.6936 32.93 57.4836 32.81 57.2916 32.618C57.1116 32.426 57.0456 32.21 57.0936 31.97C57.1176 31.838 57.1656 31.754 57.2376 31.718C57.3096 31.682 57.4416 31.652 57.6336 31.628C57.8496 31.604 57.9936 31.586 58.0656 31.574C58.1496 31.562 58.2276 31.55 58.2996 31.538C58.3836 31.514 58.5336 31.484 58.7496 31.448C58.7976 31.436 58.8576 31.406 58.9296 31.358C59.0016 31.31 59.0256 31.34 59.0016 31.448C59.0016 31.496 58.9596 31.556 58.8756 31.628C58.8036 31.688 58.7376 31.73 58.6776 31.754C58.5456 31.814 58.3956 31.886 58.2276 31.97C58.0716 32.054 57.9516 32.168 57.8676 32.312C57.8316 32.384 57.8136 32.45 57.8136 32.51C57.8136 32.678 57.8736 32.774 57.9936 32.798C58.0176 32.798 58.0296 32.816 58.0296 32.852C58.0296 32.876 58.0176 32.906 57.9936 32.942C57.9696 32.978 57.9456 32.99 57.9216 32.978ZM55.6896 38.252C55.2456 38.252 54.9336 38.114 54.7536 37.838C54.5856 37.562 54.5016 37.238 54.5016 36.866C54.5016 36.302 54.6036 35.834 54.8076 35.462C54.6876 35.402 54.6576 35.33 54.7176 35.246C54.8616 35.054 55.0296 34.826 55.2216 34.562C55.4136 34.298 55.5996 34.058 55.7796 33.842C55.9716 33.626 56.1276 33.5 56.2476 33.464C56.2836 33.452 56.3316 33.446 56.3916 33.446C56.5836 33.446 56.7576 33.512 56.9136 33.644C57.0816 33.776 57.1896 33.86 57.2376 33.896C56.9496 34.184 56.6616 34.514 56.3736 34.886C56.0976 35.258 55.8636 35.654 55.6716 36.074C55.4796 36.494 55.3836 36.92 55.3836 37.352C55.3836 37.508 55.4136 37.622 55.4736 37.694C55.5336 37.754 55.6056 37.784 55.6896 37.784C55.8696 37.784 56.0556 37.7 56.2476 37.532C56.4636 37.34 56.7336 37.058 57.0576 36.686C57.3936 36.302 57.6996 35.924 57.9756 35.552C58.1436 35.312 58.2576 35.192 58.3176 35.192C58.3776 35.192 58.3776 35.27 58.3176 35.426C58.2696 35.582 58.1796 35.762 58.0476 35.966C57.8796 36.194 57.6756 36.488 57.4356 36.848C57.1956 37.196 56.9376 37.508 56.6616 37.784C56.5056 37.94 56.3376 38.054 56.1576 38.126C55.9896 38.21 55.8336 38.252 55.6896 38.252Z" fill="white"/>
</svg>
